AnekGurmukhi-CondensedMedium.ufo
<glyph name="y" format="2">
  <advance width="689"/>
  <unicode hex="0079"/>
  <anchor x="574" y="-25" name="bottom"/>
  <anchor x="345" y="998" name="top"/>
  <outline>
    <contour>
      <point x="425" y="162" type="line"/>
      <point x="331" y="162" type="line"/>
      <point x="211" y="998" type="line"/>
      <point x="36" y="998" type="line"/>
      <point x="203" y="38" type="line"/>
      <point x="411" y="38" type="line"/>
      <point x="325" y="96" type="line"/>
      <point x="243" y="-350" type="line"/>
      <point x="410" y="-350" type="line"/>
      <point x="653" y="998" type="line"/>
      <point x="478" y="998" type="line"/>
      <point x="343" y="150" type="line"/>
    </contour>
  </outline>
</glyph>
<glyph name="Danda.gm" format="2">
  <advance width="452"/>
  <unicode hex="0964"/>
  <outline>
    <contour>
      <point x="142" y="0" type="line"/>
      <point x="310" y="0" type="line"/>
      <point x="310" y="1238" type="line"/>
      <point x="142" y="1238" type="line"/>
    </contour>
  </outline>
</glyph>
<glyph name="Doubledanda.gm" format="2">
  <advance width="808"/>
  <unicode hex="0965"/>
  <outline>
    <contour>
      <point x="503" y="0" type="line"/>
      <point x="666" y="0" type="line"/>
      <point x="666" y="1238" type="line"/>
      <point x="503" y="1238" type="line"/>
    </contour>
    <contour>
      <point x="142" y="0" type="line"/>
      <point x="305" y="0" type="line"/>
      <point x="305" y="1238" type="line"/>
      <point x="142" y="1238" type="line"/>
    </contour>
  </outline>
</glyph>
<glyph name="AddakBindi.gm" format="2">
  <unicode hex="0A01"/>
  <anchor x="411" y="1200" name="_top"/>
  <outline>
    <contour>
      <point x="303.654" y="1550.987" type="curve" smooth="yes"/>
      <point x="350.327" y="1550.987"/>
      <point x="371.921" y="1579.548"/>
      <point x="371.921" y="1629.703" type="curve" smooth="yes"/>
      <point x="371.921" y="1638.759" type="line" smooth="yes"/>
      <point x="371.921" y="1688.915"/>
      <point x="350.327" y="1716.779"/>
      <point x="303.654" y="1716.779" type="curve" smooth="yes"/>
      <point x="256.285" y="1716.779"/>
      <point x="235.387" y="1688.915"/>
      <point x="235.387" y="1638.759" type="curve" smooth="yes"/>
      <point x="235.387" y="1629.703" type="line" smooth="yes"/>
      <point x="235.387" y="1579.548"/>
      <point x="256.285" y="1550.987"/>
    </contour>
    <component base="Addak.gm"/>
  </outline>
</glyph>
<glyph name="Bindi.gm" format="2">
  <unicode hex="0A02"/>
  <anchor x="400" y="1200" name="_top"/>
  <outline>
    <contour>
      <point x="292" y="1421" type="curve" smooth="yes"/>
      <point x="359" y="1421"/>
      <point x="390" y="1462"/>
      <point x="390" y="1534" type="curve" smooth="yes"/>
      <point x="390" y="1547" type="line" smooth="yes"/>
      <point x="390" y="1619"/>
      <point x="359" y="1659"/>
      <point x="292" y="1659" type="curve" smooth="yes"/>
      <point x="224" y="1659"/>
      <point x="194" y="1619"/>
      <point x="194" y="1547" type="curve" smooth="yes"/>
      <point x="194" y="1534" type="line" smooth="yes"/>
      <point x="194" y="1462"/>
      <point x="224" y="1421"/>
    </contour>
  </outline>
</glyph>
<glyph name="Visarga.gm" format="2">
  <advance width="405"/>
  <unicode hex="0A03"/>
  <outline>
    <contour>
      <point x="202" y="635" type="curve" smooth="yes"/>
      <point x="264" y="635"/>
      <point x="295" y="675"/>
      <point x="295" y="748" type="curve" smooth="yes"/>
      <point x="295" y="769" type="line" smooth="yes"/>
      <point x="295" y="842"/>
      <point x="264" y="882"/>
      <point x="202" y="882" type="curve" smooth="yes"/>
      <point x="140" y="882"/>
      <point x="110" y="842"/>
      <point x="110" y="769" type="curve" smooth="yes"/>
      <point x="110" y="748" type="line" smooth="yes"/>
      <point x="110" y="675"/>
      <point x="140" y="635"/>
    </contour>
    <contour>
      <point x="202" y="61" type="curve" smooth="yes"/>
      <point x="264" y="61"/>
      <point x="295" y="101"/>
      <point x="295" y="174" type="curve" smooth="yes"/>
      <point x="295" y="195" type="line" smooth="yes"/>
      <point x="295" y="268"/>
      <point x="264" y="308"/>
      <point x="202" y="308" type="curve" smooth="yes"/>
      <point x="140" y="308"/>
      <point x="110" y="268"/>
      <point x="110" y="195" type="curve" smooth="yes"/>
      <point x="110" y="174" type="line" smooth="yes"/>
      <point x="110" y="101"/>
      <point x="140" y="61"/>
    </contour>
  </outline>
</glyph>
<glyph name="VowelA.gm" format="2">
  <advance width="1143"/>
  <unicode hex="0A05"/>
  <anchor x="1056" y="1200" name="top"/>
  <outline>
    <contour>
      <point x="465" y="134" type="curve"/>
      <point x="633" y="134" type="line"/>
      <point x="654" y="287"/>
      <point x="668" y="466"/>
      <point x="668" y="638" type="curve" smooth="yes"/>
      <point x="668" y="753"/>
      <point x="663" y="912"/>
      <point x="654" y="1056" type="curve"/>
      <point x="521" y="1056" type="line"/>
      <point x="180" y="743" type="line"/>
      <point x="215" y="583" type="line"/>
      <point x="537" y="886" type="line"/>
      <point x="493" y="908" type="line"/>
      <point x="499" y="821"/>
      <point x="502" y="724"/>
      <point x="502" y="653" type="curve" smooth="yes"/>
      <point x="502" y="480"/>
      <point x="488" y="299"/>
    </contour>
    <contour>
      <point x="91" y="324" type="curve"/>
      <point x="264" y="324" type="line"/>
      <point x="286" y="486"/>
      <point x="299" y="674"/>
      <point x="299" y="828" type="curve" smooth="yes"/>
      <point x="299" y="945"/>
      <point x="294" y="1088"/>
      <point x="286" y="1238" type="curve"/>
      <point x="10" y="1238" type="line"/>
      <point x="10" y="1104" type="line"/>
      <point x="119" y="1104" type="line"/>
      <point x="125" y="1009"/>
      <point x="128" y="916"/>
      <point x="128" y="843" type="curve" smooth="yes"/>
      <point x="128" y="682"/>
      <point x="114" y="489"/>
    </contour>
    <contour>
      <point x="572" y="378" type="line"/>
      <point x="912" y="665" type="line"/>
      <point x="912" y="854" type="line"/>
      <point x="572" y="567" type="line"/>
    </contour>
    <component base="_cap.shiro_left"/>
    <component base="_danda" xOffset="677"/>
  </outline>
</glyph>
<glyph name="VowelEe.gm" format="2">
  <advance width="764"/>
  <unicode hex="0A0F"/>
  <anchor x="974" y="1363" name="top1"/>
  <outline>
    <contour>
      <point x="463" y="-16" type="curve" smooth="yes"/>
      <point x="549" y="-16"/>
      <point x="630" y="4"/>
      <point x="684" y="38" type="curve"/>
      <point x="694" y="208" type="line"/>
      <point x="631" y="160"/>
      <point x="553" y="134"/>
      <point x="468" y="134" type="curve" smooth="yes"/>
      <point x="342" y="134"/>
      <point x="271" y="203"/>
      <point x="271" y="324" type="curve"/>
      <point x="271" y="509" type="line"/>
      <point x="220" y="418" type="line"/>
      <point x="359" y="490"/>
      <point x="525" y="557"/>
      <point x="662" y="608" type="curve"/>
      <point x="662" y="1147" type="line"/>
      <point x="496" y="1147" type="line"/>
      <point x="496" y="709" type="line"/>
      <point x="438" y="686"/>
      <point x="353" y="649"/>
      <point x="300" y="625" type="curve"/>
      <point x="300" y="623" type="line"/>
      <point x="221" y="592"/>
      <point x="172" y="570"/>
      <point x="101" y="533" type="curve"/>
      <point x="101" y="320" type="line"/>
      <point x="101" y="105"/>
      <point x="228" y="-16"/>
    </contour>
    <contour>
      <point x="355" y="615" type="line"/>
      <point x="364" y="624" type="line"/>
      <point x="384" y="646" type="line"/>
      <point x="303" y="686"/>
      <point x="273" y="760"/>
      <point x="273" y="862" type="curve" smooth="yes"/>
      <point x="273" y="1149" type="line"/>
      <point x="96" y="1149" type="line"/>
      <point x="96" y="891" type="line" smooth="yes"/>
      <point x="96" y="725"/>
      <point x="176" y="647"/>
      <point x="310" y="623" type="curve" smooth="yes"/>
    </contour>
    <contour>
      <point x="14" y="1104" type="line"/>
      <point x="177" y="1104" type="line"/>
      <point x="194" y="1113" type="line"/>
      <point x="572" y="1113" type="line"/>
      <point x="588" y="1104" type="line"/>
      <point x="738" y="1104" type="line"/>
      <point x="738" y="1238" type="line"/>
      <point x="14" y="1238" type="line"/>
    </contour>
    <contour>
      <point x="567" y="1215" type="line"/>
      <point x="662" y="1215" type="line"/>
      <point x="633" y="1597"/>
      <point x="504" y="1700"/>
      <point x="254" y="1700" type="curve" smooth="yes"/>
      <point x="219" y="1700"/>
      <point x="186" y="1696"/>
      <point x="149" y="1691" type="curve"/>
      <point x="140" y="1539" type="line"/>
      <point x="188" y="1546"/>
      <point x="221" y="1548"/>
      <point x="264" y="1548" type="curve" smooth="yes"/>
      <point x="426" y="1548"/>
      <point x="518" y="1486"/>
      <point x="565" y="1226" type="curve" smooth="yes"/>
    </contour>
    <component base="_cap.shiro_left"/>
    <component base="_cap.shiro_right" xOffset="502"/>
  </outline>
</glyph>
<glyph name="VowelOo.gm" format="2">
  <advance width="836"/>
  <unicode hex="0A13"/>
  <outline>
    <contour>
      <point x="438" y="-21" type="curve" smooth="yes"/>
      <point x="649" y="-21"/>
      <point x="743" y="105"/>
      <point x="743" y="306" type="curve" smooth="yes"/>
      <point x="743" y="377" type="line" smooth="yes"/>
      <point x="743" y="518"/>
      <point x="704" y="632"/>
      <point x="487" y="652" type="curve"/>
      <point x="532" y="584" type="line"/>
      <point x="532" y="649" type="line"/>
      <point x="680" y="659"/>
      <point x="752" y="787"/>
      <point x="752" y="957" type="curve" smooth="yes"/>
      <point x="752" y="1146" type="line"/>
      <point x="582" y="1146" type="line"/>
      <point x="582" y="939" type="line" smooth="yes"/>
      <point x="582" y="781"/>
      <point x="515" y="714"/>
      <point x="389" y="714" type="curve" smooth="yes"/>
      <point x="201" y="714" type="line"/>
      <point x="201" y="568" type="line"/>
      <point x="411" y="568" type="line"/>
      <point x="519" y="568"/>
      <point x="569" y="504"/>
      <point x="569" y="389" type="curve" smooth="yes"/>
      <point x="569" y="311" type="line" smooth="yes"/>
      <point x="569" y="191"/>
      <point x="531" y="124"/>
      <point x="434" y="124" type="curve" smooth="yes"/>
      <point x="316" y="124"/>
      <point x="280" y="227"/>
      <point x="280" y="379" type="curve" smooth="yes"/>
      <point x="280" y="1244" type="line" smooth="yes"/>
      <point x="280" y="1459"/>
      <point x="367" y="1552"/>
      <point x="534" y="1552" type="curve" smooth="yes"/>
      <point x="584" y="1552"/>
      <point x="632" y="1547"/>
      <point x="688" y="1533" type="curve"/>
      <point x="678" y="1676" type="line"/>
      <point x="632" y="1688"/>
      <point x="577" y="1697"/>
      <point x="518" y="1697" type="curve" smooth="yes"/>
      <point x="253" y="1697"/>
      <point x="109" y="1546"/>
      <point x="109" y="1244" type="curve"/>
      <point x="109" y="382" type="line" smooth="yes"/>
      <point x="109" y="130"/>
      <point x="212" y="-21"/>
    </contour>
    <contour>
      <point x="15" y="1104" type="line"/>
      <point x="180" y="1104" type="line"/>
      <point x="181" y="1106" type="line"/>
      <point x="667" y="1106" type="line"/>
      <point x="669" y="1104" type="line"/>
      <point x="814" y="1104" type="line"/>
      <point x="814" y="1238" type="line"/>
      <point x="15" y="1238" type="line"/>
    </contour>
    <component base="_cap.shiro_left"/>
    <component base="_cap.shiro_right" xOffset="574"/>
  </outline>
</glyph>
<glyph name="Ka.gm" format="2">
  <advance width="835"/>
  <unicode hex="0A15"/>
  <anchor x="950" y="100" name="bottom"/>
  <anchor x="870" y="100" name="bottom1"/>
  <anchor x="773" y="1200" name="top"/>
  <outline>
    <contour>
      <point x="19" y="1104" type="line"/>
      <point x="824" y="1104" type="line"/>
      <point x="824" y="1238" type="line"/>
      <point x="19" y="1238" type="line"/>
    </contour>
    <contour>
      <point x="577" y="0" type="line"/>
      <point x="747" y="0" type="line"/>
      <point x="740" y="132" type="line" smooth="yes"/>
      <point x="729" y="359"/>
      <point x="684" y="503"/>
      <point x="613" y="621" type="curve"/>
      <point x="565" y="677" type="line"/>
      <point x="525" y="801"/>
      <point x="468" y="919"/>
      <point x="319" y="919" type="curve" smooth="yes"/>
      <point x="160" y="919"/>
      <point x="71" y="808"/>
      <point x="71" y="610" type="curve" smooth="yes"/>
      <point x="71" y="522" type="line" smooth="yes"/>
      <point x="71" y="329"/>
      <point x="165" y="221"/>
      <point x="331" y="221" type="curve" smooth="yes"/>
      <point x="461" y="221"/>
      <point x="534" y="342"/>
      <point x="573" y="470" type="curve"/>
      <point x="614" y="526" type="line"/>
      <point x="710" y="706"/>
      <point x="736" y="876"/>
      <point x="743" y="1029" type="curve" smooth="yes"/>
      <point x="751" y="1177" type="line"/>
      <point x="574" y="1175" type="line"/>
      <point x="570" y="1039" type="line" smooth="yes"/>
      <point x="564" y="882"/>
      <point x="543" y="790"/>
      <point x="505" y="670" type="curve"/>
      <point x="518" y="616" type="line"/>
      <point x="506" y="522"/>
      <point x="461" y="369"/>
      <point x="362" y="369" type="curve" smooth="yes"/>
      <point x="284" y="369"/>
      <point x="246" y="423"/>
      <point x="246" y="528" type="curve" smooth="yes"/>
      <point x="246" y="611" type="line" smooth="yes"/>
      <point x="246" y="716"/>
      <point x="284" y="771"/>
      <point x="362" y="771" type="curve" smooth="yes"/>
      <point x="460" y="771"/>
      <point x="507" y="632"/>
      <point x="519" y="526" type="curve"/>
      <point x="507" y="480" type="line"/>
      <point x="532" y="414"/>
      <point x="558" y="299"/>
      <point x="568" y="133" type="curve" smooth="yes"/>
    </contour>
    <component base="_cap.shiro_left"/>
    <component base="_cap.shiro_right" xOffset="573"/>
  </outline>
</glyph>
<glyph name="Kha.gm" format="2">
  <advance width="859"/>
  <unicode hex="0A16"/>
  <anchor x="959" y="100" name="bottom"/>
  <anchor x="863" y="100" name="bottom1"/>
  <anchor x="769" y="1200" name="top"/>
  <outline>
    <contour>
      <point x="393" y="195" type="curve" smooth="yes"/>
      <point x="454" y="195"/>
      <point x="506" y="207"/>
      <point x="534" y="223" type="curve"/>
      <point x="575" y="353" type="line"/>
      <point x="590" y="353" type="line"/>
      <point x="591" y="402" type="line"/>
      <point x="561" y="372"/>
      <point x="502" y="342"/>
      <point x="425" y="342" type="curve" smooth="yes"/>
      <point x="339" y="342"/>
      <point x="269" y="379"/>
      <point x="230" y="442" type="curve"/>
      <point x="237" y="384" type="line"/>
      <point x="275" y="509"/>
      <point x="298" y="710"/>
      <point x="298" y="941" type="curve" smooth="yes"/>
      <point x="298" y="1037"/>
      <point x="294" y="1136"/>
      <point x="286" y="1238" type="curve"/>
      <point x="31" y="1238" type="line"/>
      <point x="31" y="1104" type="line"/>
      <point x="121" y="1104" type="line"/>
      <point x="125" y="1035"/>
      <point x="127" y="967"/>
      <point x="127" y="902" type="curve" smooth="yes"/>
      <point x="127" y="658"/>
      <point x="103" y="502"/>
      <point x="61" y="378" type="curve"/>
      <point x="124" y="262"/>
      <point x="240" y="195"/>
    </contour>
    <contour>
      <point x="196" y="696" type="line"/>
      <point x="671" y="696" type="line"/>
      <point x="671" y="846" type="line"/>
      <point x="196" y="845" type="line"/>
    </contour>
    <component base="_danda" xOffset="393"/>
    <component base="_cap.shiro_left"/>
  </outline>
</glyph>
<glyph name="Ga.gm" format="2">
  <advance width="1130"/>
  <unicode hex="0A17"/>
  <anchor x="1230" y="100" name="bottom"/>
  <anchor x="1074" y="100" name="bottom1"/>
  <anchor x="1041" y="1200" name="top"/>
  <outline>
    <contour>
      <point x="386" y="-19" type="curve" smooth="yes"/>
      <point x="546" y="-19"/>
      <point x="637" y="73"/>
      <point x="637" y="253" type="curve" smooth="yes"/>
      <point x="637" y="1135" type="line"/>
      <point x="467" y="1135" type="line"/>
      <point x="467" y="771" type="line"/>
      <point x="471" y="766" type="line"/>
      <point x="471" y="258" type="line" smooth="yes"/>
      <point x="471" y="175"/>
      <point x="443" y="126"/>
      <point x="383" y="126" type="curve" smooth="yes"/>
      <point x="298" y="126"/>
      <point x="252" y="216"/>
      <point x="252" y="388" type="curve" smooth="yes"/>
      <point x="252" y="509" type="line" smooth="yes"/>
      <point x="252" y="639"/>
      <point x="295" y="695"/>
      <point x="391" y="695" type="curve" smooth="yes"/>
      <point x="523" y="695" type="line"/>
      <point x="523" y="842" type="line"/>
      <point x="382" y="842" type="line" smooth="yes"/>
      <point x="174" y="842"/>
      <point x="83" y="735"/>
      <point x="83" y="514" type="curve" smooth="yes"/>
      <point x="83" y="389" type="line" smooth="yes"/>
      <point x="83" y="142"/>
      <point x="183" y="-19"/>
    </contour>
    <contour>
      <point x="22" y="1104" type="line"/>
      <point x="916" y="1104" type="line"/>
      <point x="916" y="1238" type="line"/>
      <point x="22" y="1238" type="line"/>
    </contour>
    <component base="_danda" xOffset="664"/>
    <component base="_cap.shiro_left"/>
  </outline>
</glyph>
<glyph name="Gha.gm" format="2">
  <advance width="1153"/>
  <unicode hex="0A18"/>
  <anchor x="1253" y="100" name="bottom"/>
  <anchor x="1003" y="100" name="bottom1"/>
  <anchor x="1063" y="1200" name="top"/>
  <outline>
    <contour>
      <point x="356" y="225" type="curve" smooth="yes"/>
      <point x="401" y="225"/>
      <point x="442" y="235"/>
      <point x="475" y="251" type="curve"/>
      <point x="517" y="375" type="line"/>
      <point x="599" y="378" type="line"/>
      <point x="546" y="465" type="line"/>
      <point x="502" y="398"/>
      <point x="450" y="371"/>
      <point x="379" y="371" type="curve" smooth="yes"/>
      <point x="304" y="371"/>
      <point x="246" y="404"/>
      <point x="223" y="461" type="curve"/>
      <point x="228" y="405" type="line"/>
      <point x="272" y="516"/>
      <point x="298" y="711"/>
      <point x="298" y="941" type="curve" smooth="yes"/>
      <point x="298" y="1037"/>
      <point x="294" y="1136"/>
      <point x="286" y="1238" type="curve"/>
      <point x="28" y="1238" type="line"/>
      <point x="37" y="1104" type="line"/>
      <point x="121" y="1104" type="line"/>
      <point x="125" y="1035"/>
      <point x="127" y="967"/>
      <point x="127" y="902" type="curve" smooth="yes"/>
      <point x="127" y="688"/>
      <point x="106" y="505"/>
      <point x="62" y="386" type="curve"/>
      <point x="122" y="278"/>
      <point x="218" y="225"/>
    </contour>
    <contour>
      <point x="733" y="226" type="curve" smooth="yes"/>
      <point x="774" y="226"/>
      <point x="808" y="236"/>
      <point x="829" y="247" type="curve"/>
      <point x="867" y="357" type="line"/>
      <point x="882" y="357" type="line"/>
      <point x="876" y="410" type="line"/>
      <point x="854" y="389"/>
      <point x="823" y="371"/>
      <point x="772" y="371" type="curve" smooth="yes"/>
      <point x="716" y="371"/>
      <point x="676" y="398"/>
      <point x="664" y="435" type="curve"/>
      <point x="510" y="396" type="line"/>
      <point x="510" y="308"/>
      <point x="594" y="226"/>
    </contour>
    <contour>
      <point x="669" y="1225" type="line"/>
      <point x="500" y="1197" type="line"/>
      <point x="500" y="952" type="line" smooth="yes"/>
      <point x="500" y="792"/>
      <point x="503" y="518"/>
      <point x="508" y="380" type="curve"/>
      <point x="668" y="380" type="line"/>
      <point x="668" y="557"/>
      <point x="669" y="790"/>
      <point x="669" y="960" type="curve" smooth="yes"/>
    </contour>
    <component base="_danda" xOffset="687"/>
    <component base="_cap.shiro_left"/>
  </outline>
</glyph>
<glyph name="Nga.gm" format="2">
  <advance width="776"/>
  <unicode hex="0A19"/>
  <anchor x="740" y="75" name="bottom"/>
  <anchor x="841" y="50" name="bottom1"/>
  <anchor x="688" y="1200" name="top"/>
  <outline>
    <contour>
      <point x="36" y="1104" type="line"/>
      <point x="200" y="1104" type="line"/>
      <point x="203" y="1104" type="line"/>
      <point x="746" y="1104" type="line"/>
      <point x="746" y="1238" type="line"/>
      <point x="36" y="1238" type="line"/>
    </contour>
    <contour>
      <point x="326" y="13" type="curve" smooth="yes"/>
      <point x="437" y="13"/>
      <point x="507" y="59"/>
      <point x="553" y="117" type="curve"/>
      <point x="596" y="150" type="line"/>
      <point x="649" y="211"/>
      <point x="693" y="318"/>
      <point x="693" y="487" type="curve" smooth="yes"/>
      <point x="693" y="628" type="line" smooth="yes"/>
      <point x="693" y="792"/>
      <point x="606" y="895"/>
      <point x="411" y="895" type="curve" smooth="yes"/>
      <point x="285" y="895" type="line"/>
      <point x="285" y="1183" type="line"/>
      <point x="112" y="1183" type="line"/>
      <point x="112" y="758" type="line"/>
      <point x="372" y="758" type="line" smooth="yes"/>
      <point x="475" y="758"/>
      <point x="524" y="706"/>
      <point x="524" y="597" type="curve" smooth="yes"/>
      <point x="524" y="507" type="line" smooth="yes"/>
      <point x="524" y="438"/>
      <point x="519" y="369"/>
      <point x="504" y="318" type="curve"/>
      <point x="488" y="277" type="line"/>
      <point x="459" y="202"/>
      <point x="412" y="155"/>
      <point x="342" y="155" type="curve" smooth="yes"/>
      <point x="277" y="155"/>
      <point x="239" y="200"/>
      <point x="239" y="271" type="curve" smooth="yes"/>
      <point x="239" y="295" type="line" smooth="yes"/>
      <point x="239" y="371"/>
      <point x="272" y="416"/>
      <point x="329" y="416" type="curve" smooth="yes"/>
      <point x="397" y="416"/>
      <point x="448" y="353"/>
      <point x="485" y="215" type="curve"/>
      <point x="559" y="314" type="line"/>
      <point x="519" y="485"/>
      <point x="438" y="555"/>
      <point x="310" y="555" type="curve" smooth="yes"/>
      <point x="160" y="555"/>
      <point x="71" y="459"/>
      <point x="71" y="297" type="curve" smooth="yes"/>
      <point x="71" y="269" type="line" smooth="yes"/>
      <point x="71" y="108"/>
      <point x="166" y="13"/>
    </contour>
    <contour>
      <point x="538" y="-97" type="line"/>
      <point x="707" y="-97" type="line"/>
      <point x="596" y="291" type="line"/>
      <point x="492" y="172" type="line"/>
    </contour>
    <component base="_cap.shiro_left"/>
    <component base="_cap.shiro_right" xOffset="513"/>
  </outline>
</glyph>
<glyph name="Ca.gm" format="2">
  <advance width="815"/>
  <unicode hex="0A1A"/>
  <anchor x="818" y="100" name="bottom"/>
  <anchor x="860" y="100" name="bottom1"/>
  <anchor x="730" y="1200" name="top"/>
  <outline>
    <contour>
      <point x="427" y="-17" type="curve" smooth="yes"/>
      <point x="611" y="-17"/>
      <point x="707" y="81"/>
      <point x="707" y="286" type="curve" smooth="yes"/>
      <point x="707" y="1171" type="line"/>
      <point x="537" y="1171" type="line"/>
      <point x="537" y="683" type="line"/>
      <point x="541" y="676" type="line"/>
      <point x="541" y="287" type="line" smooth="yes"/>
      <point x="541" y="181"/>
      <point x="508" y="128"/>
      <point x="425" y="128" type="curve" smooth="yes"/>
      <point x="321" y="128"/>
      <point x="271" y="230"/>
      <point x="271" y="420" type="curve" smooth="yes"/>
      <point x="271" y="952" type="line"/>
      <point x="101" y="922" type="line"/>
      <point x="101" y="426" type="line" smooth="yes"/>
      <point x="101" y="139"/>
      <point x="219" y="-17"/>
    </contour>
    <contour>
      <point x="178" y="602" type="line"/>
      <point x="623" y="602" type="line"/>
      <point x="623" y="751" type="line"/>
      <point x="178" y="751" type="line"/>
    </contour>
    <contour>
      <point x="21" y="1104" type="line"/>
      <point x="764" y="1104" type="line"/>
      <point x="764" y="1238" type="line"/>
      <point x="21" y="1238" type="line"/>
    </contour>
    <component base="_cap.shiro_left"/>
    <component base="_cap.shiro_right" xOffset="553"/>
  </outline>
</glyph>
<glyph name="Cha.gm" format="2">
  <advance width="820"/>
  <unicode hex="0A1B"/>
  <anchor x="845" y="100" name="bottom"/>
  <anchor x="858" y="100" name="bottom1"/>
  <anchor x="712" y="1200" name="top"/>
  <outline>
    <contour>
      <point x="417" y="-27" type="line"/>
      <point x="472" y="-27" type="line" smooth="yes"/>
      <point x="657" y="-27"/>
      <point x="760" y="64"/>
      <point x="760" y="242" type="curve" smooth="yes"/>
      <point x="760" y="300" type="line" smooth="yes"/>
      <point x="760" y="453"/>
      <point x="659" y="548"/>
      <point x="479" y="548" type="curve" smooth="yes"/>
      <point x="373" y="548" type="line" smooth="yes"/>
      <point x="311" y="548"/>
      <point x="269" y="593"/>
      <point x="269" y="657" type="curve" smooth="yes"/>
      <point x="269" y="728"/>
      <point x="308" y="771"/>
      <point x="382" y="771" type="curve" smooth="yes"/>
      <point x="689" y="771" type="line"/>
      <point x="689" y="1179" type="line"/>
      <point x="516" y="1179" type="line"/>
      <point x="516" y="905" type="line"/>
      <point x="325" y="905" type="line" smooth="yes"/>
      <point x="170" y="905"/>
      <point x="88" y="819"/>
      <point x="88" y="689" type="curve" smooth="yes"/>
      <point x="88" y="566"/>
      <point x="167" y="491"/>
      <point x="286" y="491" type="curve"/>
      <point x="286" y="480" type="line"/>
      <point x="378" y="418" type="line"/>
      <point x="477" y="418" type="line" smooth="yes"/>
      <point x="556" y="418"/>
      <point x="603" y="373"/>
      <point x="603" y="293" type="curve" smooth="yes"/>
      <point x="603" y="237" type="line" smooth="yes"/>
      <point x="603" y="155"/>
      <point x="552" y="110"/>
      <point x="470" y="110" type="curve" smooth="yes"/>
      <point x="417" y="110" type="line"/>
    </contour>
    <contour>
      <point x="360" y="-27" type="curve"/>
      <point x="428" y="-27" type="line"/>
      <point x="428" y="110" type="line"/>
      <point x="372" y="110" type="line" smooth="yes"/>
      <point x="289" y="110"/>
      <point x="238" y="155"/>
      <point x="238" y="237" type="curve" smooth="yes"/>
      <point x="238" y="293" type="line" smooth="yes"/>
      <point x="238" y="369"/>
      <point x="283" y="418"/>
      <point x="357" y="418" type="curve" smooth="yes"/>
      <point x="406" y="418" type="line"/>
      <point x="406" y="487" type="line"/>
      <point x="280" y="487" type="line" smooth="yes"/>
      <point x="165" y="487"/>
      <point x="80" y="408"/>
      <point x="80" y="282" type="curve" smooth="yes"/>
      <point x="80" y="225" type="line" smooth="yes"/>
      <point x="80" y="65"/>
      <point x="185" y="-27"/>
    </contour>
    <contour>
      <point x="367" y="39" type="line"/>
      <point x="475" y="39" type="line"/>
      <point x="475" y="484" type="line"/>
      <point x="367" y="484" type="line"/>
    </contour>
    <contour>
      <point x="28" y="1104" type="line"/>
      <point x="602" y="1104" type="line"/>
      <point x="606" y="1104" type="line"/>
      <point x="786" y="1104" type="line"/>
      <point x="786" y="1238" type="line"/>
      <point x="28" y="1238" type="line"/>
    </contour>
    <component base="_cap.shiro_left"/>
    <component base="_cap.shiro_right" xOffset="557"/>
  </outline>
</glyph>
<glyph name="Ja.gm" format="2">
  <advance width="823"/>
  <unicode hex="0A1C"/>
  <anchor x="923" y="100" name="bottom"/>
  <anchor x="848" y="100" name="bottom1"/>
  <anchor x="734" y="1200" name="top"/>
  <outline>
    <contour>
      <point x="85" y="0" type="curve"/>
      <point x="256" y="0" type="line"/>
      <point x="272" y="169"/>
      <point x="281" y="378"/>
      <point x="281" y="565" type="curve" smooth="yes"/>
      <point x="281" y="698"/>
      <point x="275" y="829"/>
      <point x="263" y="944" type="curve"/>
      <point x="93" y="916" type="line"/>
      <point x="104" y="807"/>
      <point x="111" y="700"/>
      <point x="111" y="569" type="curve" smooth="yes"/>
      <point x="111" y="381"/>
      <point x="102" y="171"/>
    </contour>
    <contour>
      <point x="202" y="567" type="line"/>
      <point x="627" y="567" type="line"/>
      <point x="627" y="716" type="line"/>
      <point x="202" y="716" type="line"/>
    </contour>
    <contour>
      <point x="34" y="1104" type="line"/>
      <point x="653" y="1104" type="line"/>
      <point x="653" y="1238" type="line"/>
      <point x="34" y="1238" type="line"/>
    </contour>
    <component base="_danda" xOffset="357"/>
    <component base="_cap.shiro_left"/>
  </outline>
</glyph>
<glyph name="Jha.gm" format="2">
  <advance width="800"/>
  <unicode hex="0A1D"/>
  <anchor x="722" y="15" name="bottom"/>
  <anchor x="848" y="0" name="bottom1"/>
  <anchor x="730" y="1200" name="top"/>
  <outline>
    <contour>
      <point x="397" y="65" type="curve" smooth="yes"/>
      <point x="617" y="65"/>
      <point x="714" y="173"/>
      <point x="714" y="364" type="curve" smooth="yes"/>
      <point x="714" y="428" type="line" smooth="yes"/>
      <point x="714" y="565"/>
      <point x="642" y="675"/>
      <point x="506" y="693" type="curve"/>
      <point x="506" y="714" type="line"/>
      <point x="393" y="723" type="line"/>
      <point x="281" y="719" type="line"/>
      <point x="281" y="699" type="line"/>
      <point x="217" y="699"/>
      <point x="147" y="689"/>
      <point x="96" y="673" type="curve"/>
      <point x="86" y="521" type="line"/>
      <point x="184" y="550"/>
      <point x="280" y="570"/>
      <point x="358" y="570" type="curve" smooth="yes"/>
      <point x="486" y="570"/>
      <point x="538" y="506"/>
      <point x="538" y="411" type="curve" smooth="yes"/>
      <point x="538" y="379" type="line" smooth="yes"/>
      <point x="538" y="272"/>
      <point x="487" y="215"/>
      <point x="359" y="215" type="curve" smooth="yes"/>
      <point x="271" y="215"/>
      <point x="177" y="238"/>
      <point x="93" y="280" type="curve"/>
      <point x="104" y="122" type="line"/>
      <point x="171" y="90"/>
      <point x="280" y="65"/>
    </contour>
    <contour>
      <point x="333" y="-166" type="line"/>
      <point x="561" y="-167" type="line"/>
      <point x="482" y="-70"/>
      <point x="393" y="16"/>
      <point x="339" y="69" type="curve"/>
      <point x="344" y="120" type="line"/>
      <point x="147" y="117" type="line"/>
    </contour>
    <contour>
      <point x="313" y="700" type="curve"/>
      <point x="400" y="723" type="line"/>
      <point x="313" y="723"/>
      <point x="270" y="780"/>
      <point x="270" y="896" type="curve" smooth="yes"/>
      <point x="270" y="1179" type="line"/>
      <point x="84" y="1179" type="line"/>
      <point x="88" y="916" type="line" smooth="yes"/>
      <point x="90" y="764"/>
      <point x="186" y="704"/>
    </contour>
    <contour>
      <point x="23" y="1104" type="line"/>
      <point x="169" y="1104" type="line"/>
      <point x="174" y="1111" type="line"/>
      <point x="614" y="1111" type="line"/>
      <point x="621" y="1104" type="line"/>
      <point x="741" y="1104" type="line"/>
      <point x="742" y="1238" type="line"/>
      <point x="23" y="1238" type="line"/>
    </contour>
    <contour>
      <point x="703" y="920" type="curve" smooth="yes"/>
      <point x="708" y="1179" type="line"/>
      <point x="522" y="1179" type="line"/>
      <point x="522" y="896" type="line" smooth="yes"/>
      <point x="522" y="780"/>
      <point x="477" y="723"/>
      <point x="392" y="723" type="curve"/>
      <point x="476" y="694" type="line"/>
      <point x="614" y="698"/>
      <point x="700" y="755"/>
    </contour>
    <component base="_cap.shiro_left"/>
    <component base="_cap.shiro_right" xOffset="538"/>
  </outline>
</glyph>
<glyph name="Nya.gm" format="2">
  <advance width="807"/>
  <unicode hex="0A1E"/>
  <anchor x="833" y="100" name="bottom"/>
  <anchor x="888" y="100" name="bottom1"/>
  <anchor x="723" y="1200" name="top"/>
  <outline>
    <contour>
      <point x="333" y="347" type="curve"/>
      <point x="682" y="347" type="line"/>
      <point x="682" y="487" type="line"/>
      <point x="350" y="487" type="line" smooth="yes"/>
      <point x="282" y="487"/>
      <point x="235" y="514"/>
      <point x="235" y="603" type="curve" smooth="yes"/>
      <point x="235" y="675"/>
      <point x="277" y="705"/>
      <point x="355" y="705" type="curve" smooth="yes"/>
      <point x="700" y="705" type="line"/>
      <point x="700" y="1151" type="line"/>
      <point x="531" y="1151" type="line"/>
      <point x="531" y="845" type="line"/>
      <point x="337" y="845" type="line" smooth="yes"/>
      <point x="163" y="845"/>
      <point x="59" y="762"/>
      <point x="59" y="604" type="curve" smooth="yes"/>
      <point x="59" y="429"/>
      <point x="162" y="347"/>
    </contour>
    <contour>
      <point x="620" y="-22" type="curve" smooth="yes"/>
      <point x="653" y="-22"/>
      <point x="693" y="-18"/>
      <point x="714" y="-13" type="curve"/>
      <point x="724" y="132" type="line"/>
      <point x="689" y="125"/>
      <point x="662" y="123"/>
      <point x="635" y="123" type="curve" smooth="yes"/>
      <point x="504" y="123"/>
      <point x="421" y="187"/>
      <point x="409" y="406" type="curve"/>
      <point x="237" y="409" type="line"/>
      <point x="268" y="95"/>
      <point x="400" y="-22"/>
    </contour>
    <contour>
      <point x="244" y="737" type="curve"/>
      <point x="421" y="771" type="line"/>
      <point x="334" y="872"/>
      <point x="300" y="1026"/>
      <point x="289" y="1201" type="curve"/>
      <point x="106" y="1201" type="line"/>
      <point x="116" y="1022"/>
      <point x="161" y="873"/>
    </contour>
    <contour>
      <point x="74" y="1104" type="line"/>
      <point x="192" y="1104" type="line"/>
      <point x="204" y="1109" type="line"/>
      <point x="608" y="1109" type="line"/>
      <point x="622" y="1104" type="line"/>
      <point x="751" y="1104" type="line"/>
      <point x="751" y="1238" type="line"/>
      <point x="74" y="1238" type="line"/>
    </contour>
    <component base="_cap.shiro_left"/>
    <component base="_cap.shiro_right" xOffset="545"/>
  </outline>
</glyph>
<glyph name="Tta.gm" format="2">
  <advance width="679"/>
  <unicode hex="0A1F"/>
  <anchor x="756" y="100" name="bottom"/>
  <anchor x="803" y="100" name="bottom1"/>
  <anchor x="605" y="1200" name="top"/>
  <outline>
    <contour>
      <point x="427" y="-15" type="curve" smooth="yes"/>
      <point x="509" y="-15"/>
      <point x="574" y="6"/>
      <point x="617" y="38" type="curve"/>
      <point x="627" y="211" type="line"/>
      <point x="576" y="167"/>
      <point x="513" y="135"/>
      <point x="441" y="135" type="curve" smooth="yes"/>
      <point x="327" y="135"/>
      <point x="264" y="202"/>
      <point x="264" y="333" type="curve"/>
      <point x="264" y="581" type="line"/>
      <point x="209" y="505" type="line"/>
      <point x="330" y="599"/>
      <point x="472" y="679"/>
      <point x="582" y="726" type="curve"/>
      <point x="582" y="1167" type="line"/>
      <point x="414" y="1167" type="line"/>
      <point x="414" y="792" type="line"/>
      <point x="502" y="862" type="line"/>
      <point x="371" y="799"/>
      <point x="195" y="706"/>
      <point x="94" y="628" type="curve"/>
      <point x="94" y="326" type="line"/>
      <point x="94" y="106"/>
      <point x="213" y="-15"/>
    </contour>
    <contour>
      <point x="37" y="1104" type="line"/>
      <point x="647" y="1104" type="line"/>
      <point x="647" y="1238" type="line"/>
      <point x="37" y="1238" type="line"/>
    </contour>
    <component base="_cap.shiro_left"/>
    <component base="_cap.shiro_right" xOffset="426"/>
  </outline>
</glyph>
<glyph name="Ttha.gm" format="2">
  <advance width="813"/>
  <unicode hex="0A20"/>
  <anchor x="789" y="100" name="bottom"/>
  <anchor x="840" y="100" name="bottom1"/>
  <anchor x="520" y="1200" name="top"/>
  <outline>
    <contour>
      <point x="408" y="-18" type="curve" smooth="yes"/>
      <point x="622" y="-18"/>
      <point x="731" y="100"/>
      <point x="731" y="332" type="curve" smooth="yes"/>
      <point x="731" y="538" type="line" smooth="yes"/>
      <point x="731" y="722"/>
      <point x="634" y="843"/>
      <point x="409" y="903" type="curve"/>
      <point x="185" y="842"/>
      <point x="85" y="720"/>
      <point x="85" y="538" type="curve" smooth="yes"/>
      <point x="85" y="332" type="line" smooth="yes"/>
      <point x="85" y="100"/>
      <point x="194" y="-18"/>
    </contour>
    <contour>
      <point x="408" y="127" type="curve" smooth="yes"/>
      <point x="306" y="127"/>
      <point x="256" y="194"/>
      <point x="256" y="325" type="curve" smooth="yes"/>
      <point x="256" y="540" type="line" smooth="yes"/>
      <point x="256" y="640"/>
      <point x="310" y="712"/>
      <point x="409" y="749" type="curve"/>
      <point x="508" y="714"/>
      <point x="560" y="641"/>
      <point x="560" y="540" type="curve" smooth="yes"/>
      <point x="560" y="325" type="line" smooth="yes"/>
      <point x="560" y="194"/>
      <point x="511" y="127"/>
    </contour>
    <contour>
      <point x="326" y="809" type="line"/>
      <point x="496" y="809" type="line"/>
      <point x="496" y="1176" type="line"/>
      <point x="326" y="1176" type="line"/>
    </contour>
    <contour>
      <point x="30" y="1104" type="line"/>
      <point x="796" y="1104" type="line"/>
      <point x="796" y="1238" type="line"/>
      <point x="30" y="1238" type="line"/>
    </contour>
    <component base="_cap.shiro_left"/>
    <component base="_cap.shiro_right" xOffset="551"/>
  </outline>
</glyph>
<glyph name="Dda.gm" format="2">
  <advance width="777"/>
  <unicode hex="0A21"/>
  <anchor x="785" y="100" name="bottom"/>
  <anchor x="816" y="100" name="bottom1"/>
  <anchor x="691" y="1200" name="top"/>
  <outline>
    <contour>
      <point x="369" y="-21" type="curve" smooth="yes"/>
      <point x="571" y="-21"/>
      <point x="687" y="101"/>
      <point x="687" y="302" type="curve" smooth="yes"/>
      <point x="687" y="494" type="line" smooth="yes"/>
      <point x="687" y="656"/>
      <point x="603" y="752"/>
      <point x="458" y="760" type="curve"/>
      <point x="498" y="693" type="line"/>
      <point x="498" y="758" type="line"/>
      <point x="603" y="768"/>
      <point x="668" y="862"/>
      <point x="668" y="1002" type="curve" smooth="yes"/>
      <point x="668" y="1179" type="line"/>
      <point x="495" y="1179" type="line"/>
      <point x="495" y="992" type="line" smooth="yes"/>
      <point x="495" y="898"/>
      <point x="467" y="826"/>
      <point x="371" y="826" type="curve" smooth="yes"/>
      <point x="147" y="826" type="line"/>
      <point x="147" y="684" type="line"/>
      <point x="371" y="684" type="line" smooth="yes"/>
      <point x="475" y="684"/>
      <point x="517" y="598"/>
      <point x="517" y="482" type="curve" smooth="yes"/>
      <point x="517" y="297" type="line"/>
      <point x="517" y="189"/>
      <point x="456" y="122"/>
      <point x="359" y="122" type="curve" smooth="yes"/>
      <point x="276" y="122"/>
      <point x="232" y="168"/>
      <point x="232" y="241" type="curve" smooth="yes"/>
      <point x="232" y="244" type="line" smooth="yes"/>
      <point x="232" y="313"/>
      <point x="276" y="356"/>
      <point x="352" y="356" type="curve" smooth="yes"/>
      <point x="428" y="356"/>
      <point x="490" y="297"/>
      <point x="498" y="183" type="curve"/>
      <point x="525" y="200" type="line"/>
      <point x="518" y="433"/>
      <point x="434" y="492"/>
      <point x="290" y="492" type="curve" smooth="yes"/>
      <point x="154" y="492"/>
      <point x="68" y="395"/>
      <point x="68" y="249" type="curve" smooth="yes"/>
      <point x="68" y="241" type="line" smooth="yes"/>
      <point x="68" y="82"/>
      <point x="175" y="-21"/>
    </contour>
    <contour>
      <point x="28" y="1104" type="line"/>
      <point x="585" y="1104" type="line"/>
      <point x="595" y="1104" type="line"/>
      <point x="758" y="1104" type="line"/>
      <point x="768" y="1238" type="line"/>
      <point x="28" y="1238" type="line"/>
    </contour>
    <component base="_cap.shiro_left"/>
    <component base="_cap.shiro_right" xOffset="514"/>
  </outline>
</glyph>
<glyph name="Ddha.gm" format="2">
  <advance width="765"/>
  <unicode hex="0A22"/>
  <anchor x="795" y="100" name="bottom"/>
  <anchor x="848" y="100" name="bottom1"/>
  <anchor x="678" y="1200" name="top"/>
  <outline>
    <contour>
      <point x="430" y="-21" type="curve" smooth="yes"/>
      <point x="607" y="-21"/>
      <point x="713" y="83"/>
      <point x="713" y="241" type="curve" smooth="yes"/>
      <point x="713" y="249" type="line" smooth="yes"/>
      <point x="713" y="399"/>
      <point x="631" y="495"/>
      <point x="492" y="495" type="curve" smooth="yes"/>
      <point x="342" y="495"/>
      <point x="268" y="421"/>
      <point x="267" y="212" type="curve"/>
      <point x="293" y="165" type="line"/>
      <point x="298" y="303"/>
      <point x="354" y="356"/>
      <point x="430" y="356" type="curve" smooth="yes"/>
      <point x="504" y="356"/>
      <point x="549" y="312"/>
      <point x="549" y="246" type="curve" smooth="yes"/>
      <point x="549" y="240" type="line" smooth="yes"/>
      <point x="549" y="166"/>
      <point x="502" y="122"/>
      <point x="431" y="122" type="curve" smooth="yes"/>
      <point x="306" y="122"/>
      <point x="262" y="253"/>
      <point x="262" y="445" type="curve"/>
      <point x="262" y="982" type="line"/>
      <point x="92" y="952" type="line"/>
      <point x="92" y="446" type="line" smooth="yes"/>
      <point x="92" y="139"/>
      <point x="216" y="-21"/>
    </contour>
    <contour>
      <point x="173" y="685" type="line"/>
      <point x="655" y="685" type="line"/>
      <point x="655" y="1177" type="line"/>
      <point x="485" y="1177" type="line"/>
      <point x="485" y="823" type="line"/>
      <point x="173" y="823" type="line"/>
    </contour>
    <contour>
      <point x="14" y="1104" type="line"/>
      <point x="722" y="1104" type="line"/>
      <point x="722" y="1238" type="line"/>
      <point x="14" y="1238" type="line"/>
    </contour>
    <component base="_cap.shiro_left"/>
    <component base="_cap.shiro_right" xOffset="503"/>
  </outline>
</glyph>
<glyph name="Nna.gm" format="2">
  <advance width="731"/>
  <unicode hex="0A23"/>
  <anchor x="790" y="100" name="bottom"/>
  <anchor x="831" y="100" name="bottom1"/>
  <anchor x="672" y="1200" name="top"/>
  <outline>
    <contour>
      <point x="443" y="-17" type="curve" smooth="yes"/>
      <point x="530" y="-17"/>
      <point x="610" y="6"/>
      <point x="654" y="38" type="curve"/>
      <point x="664" y="212" type="line"/>
      <point x="605" y="162"/>
      <point x="532" y="133"/>
      <point x="450" y="133" type="curve" smooth="yes"/>
      <point x="319" y="133"/>
      <point x="256" y="197"/>
      <point x="256" y="328" type="curve" smooth="yes"/>
      <point x="256" y="426" type="line"/>
      <point x="205" y="345" type="line"/>
      <point x="310" y="401"/>
      <point x="422" y="448"/>
      <point x="524" y="487" type="curve"/>
      <point x="524" y="761" type="line"/>
      <point x="361" y="767" type="line"/>
      <point x="361" y="585" type="line"/>
      <point x="266" y="544"/>
      <point x="166" y="499"/>
      <point x="83" y="454" type="curve"/>
      <point x="83" y="322" type="line" smooth="yes"/>
      <point x="83" y="99"/>
      <point x="212" y="-17"/>
    </contour>
    <contour>
      <point x="583" y="669" type="curve"/>
      <point x="653" y="669" type="line"/>
      <point x="653" y="813" type="line"/>
      <point x="585" y="813" type="line" smooth="yes"/>
      <point x="401" y="813"/>
      <point x="316" y="895"/>
      <point x="316" y="1056" type="curve" smooth="yes"/>
      <point x="316" y="1180" type="line"/>
      <point x="143" y="1180" type="line"/>
      <point x="143" y="1056" type="line" smooth="yes"/>
      <point x="143" y="789"/>
      <point x="306" y="669"/>
    </contour>
    <contour>
      <point x="18" y="1104" type="line"/>
      <point x="687" y="1104" type="line"/>
      <point x="687" y="1238" type="line"/>
      <point x="18" y="1238" type="line"/>
    </contour>
    <component base="_cap.shiro_left"/>
    <component base="_cap.shiro_right" xOffset="468"/>
  </outline>
</glyph>
<glyph name="Ta.gm" format="2">
  <advance width="680"/>
  <unicode hex="0A24"/>
  <anchor x="703" y="100" name="bottom"/>
  <anchor x="753" y="100" name="bottom1"/>
  <anchor x="604" y="1200" name="top"/>
  <outline>
    <contour>
      <point x="36" y="1104" type="line"/>
      <point x="639" y="1104" type="line"/>
      <point x="639" y="1238" type="line"/>
      <point x="36" y="1238" type="line"/>
    </contour>
    <contour>
      <point x="274" y="-16" type="curve" smooth="yes"/>
      <point x="500" y="-16"/>
      <point x="600" y="94"/>
      <point x="600" y="297" type="curve" smooth="yes"/>
      <point x="600" y="393" type="line" smooth="yes"/>
      <point x="600" y="570"/>
      <point x="538" y="656"/>
      <point x="375" y="666" type="curve"/>
      <point x="416" y="598" type="line"/>
      <point x="416" y="664" type="line"/>
      <point x="519" y="677"/>
      <point x="581" y="753"/>
      <point x="581" y="902" type="curve" smooth="yes"/>
      <point x="581" y="1175" type="line"/>
      <point x="410" y="1175" type="line"/>
      <point x="410" y="907" type="line" smooth="yes"/>
      <point x="410" y="811"/>
      <point x="387" y="738"/>
      <point x="269" y="738" type="curve" smooth="yes"/>
      <point x="115" y="738" type="line"/>
      <point x="115" y="581" type="line"/>
      <point x="282" y="581" type="line" smooth="yes"/>
      <point x="422" y="581"/>
      <point x="429" y="506"/>
      <point x="429" y="398" type="curve" smooth="yes"/>
      <point x="429" y="314" type="line" smooth="yes"/>
      <point x="429" y="199"/>
      <point x="376" y="134"/>
      <point x="262" y="134" type="curve" smooth="yes"/>
      <point x="195" y="134"/>
      <point x="120" y="163"/>
      <point x="59" y="212" type="curve"/>
      <point x="69" y="38" type="line"/>
      <point x="118" y="6"/>
      <point x="197" y="-16"/>
    </contour>
    <component base="_cap.shiro_left"/>
    <component base="_cap.shiro_right" xOffset="418"/>
  </outline>
</glyph>
<glyph name="Da.gm" format="2">
  <advance width="777"/>
  <unicode hex="0A26"/>
  <anchor x="815" y="100" name="bottom"/>
  <anchor x="870" y="100" name="bottom1"/>
  <anchor x="689" y="1200" name="top"/>
  <outline>
    <contour>
      <point x="468" y="-14" type="curve" smooth="yes"/>
      <point x="563" y="-14"/>
      <point x="644" y="11"/>
      <point x="695" y="53" type="curve"/>
      <point x="705" y="218" type="line"/>
      <point x="647" y="167"/>
      <point x="569" y="136"/>
      <point x="483" y="136" type="curve" smooth="yes"/>
      <point x="353" y="136"/>
      <point x="275" y="212"/>
      <point x="275" y="368" type="curve" smooth="yes"/>
      <point x="275" y="629" type="line"/>
      <point x="270" y="649" type="line"/>
      <point x="270" y="927" type="line"/>
      <point x="104" y="899" type="line"/>
      <point x="104" y="365" type="line" smooth="yes"/>
      <point x="104" y="126"/>
      <point x="224" y="-14"/>
    </contour>
    <contour>
      <point x="189" y="567" type="line"/>
      <point x="666" y="567" type="line"/>
      <point x="666" y="1174" type="line"/>
      <point x="498" y="1174" type="line"/>
      <point x="498" y="713" type="line"/>
      <point x="189" y="713" type="line"/>
    </contour>
    <contour>
      <point x="24" y="1104" type="line"/>
      <point x="755" y="1104" type="line"/>
      <point x="755" y="1238" type="line"/>
      <point x="24" y="1238" type="line"/>
    </contour>
    <component base="_cap.shiro_left"/>
    <component base="_cap.shiro_right" xOffset="515"/>
  </outline>
</glyph>
<glyph name="Dha.gm" format="2">
  <advance width="847"/>
  <unicode hex="0A27"/>
  <anchor x="947" y="100" name="bottom"/>
  <anchor x="873" y="100" name="bottom1"/>
  <anchor x="757" y="1200" name="top"/>
  <outline>
    <contour>
      <point x="151" y="1104" type="line"/>
      <point x="729" y="1104" type="line"/>
      <point x="729" y="1238" type="line"/>
      <point x="151" y="1238" type="line"/>
    </contour>
    <contour>
      <point x="393" y="195" type="curve" smooth="yes"/>
      <point x="451" y="195"/>
      <point x="500" y="207"/>
      <point x="526" y="223" type="curve"/>
      <point x="567" y="353" type="line"/>
      <point x="582" y="353" type="line"/>
      <point x="583" y="402" type="line"/>
      <point x="553" y="372"/>
      <point x="498" y="342"/>
      <point x="425" y="342" type="curve" smooth="yes"/>
      <point x="339" y="342"/>
      <point x="269" y="379"/>
      <point x="230" y="442" type="curve"/>
      <point x="237" y="384" type="line"/>
      <point x="275" y="509"/>
      <point x="298" y="710"/>
      <point x="298" y="941" type="curve" smooth="yes"/>
      <point x="298" y="1037"/>
      <point x="294" y="1136"/>
      <point x="286" y="1238" type="curve"/>
      <point x="31" y="1238" type="line"/>
      <point x="31" y="1104" type="line"/>
      <point x="121" y="1104" type="line"/>
      <point x="125" y="1035"/>
      <point x="127" y="967"/>
      <point x="127" y="902" type="curve" smooth="yes"/>
      <point x="127" y="658"/>
      <point x="103" y="502"/>
      <point x="61" y="378" type="curve"/>
      <point x="124" y="262"/>
      <point x="240" y="195"/>
    </contour>
    <component base="_danda" xOffset="381"/>
    <component base="_cap.shiro_left"/>
  </outline>
</glyph>
<glyph name="Na.gm" format="2">
  <advance width="823"/>
  <unicode hex="0A28"/>
  <anchor x="907" y="100" name="bottom"/>
  <anchor x="854" y="100" name="bottom1"/>
  <anchor x="518" y="1200" name="top"/>
  <outline>
    <contour>
      <point x="164" y="0" type="curve"/>
      <point x="337" y="0" type="line"/>
      <point x="332" y="7" type="line"/>
      <point x="272" y="101"/>
      <point x="256" y="191"/>
      <point x="256" y="311" type="curve" smooth="yes"/>
      <point x="256" y="494" type="line" smooth="yes"/>
      <point x="256" y="642"/>
      <point x="312" y="703"/>
      <point x="411" y="750" type="curve"/>
      <point x="508" y="704"/>
      <point x="565" y="642"/>
      <point x="565" y="494" type="curve" smooth="yes"/>
      <point x="565" y="311" type="line" smooth="yes"/>
      <point x="565" y="190"/>
      <point x="546" y="105"/>
      <point x="489" y="8" type="curve"/>
      <point x="484" y="0" type="line"/>
      <point x="657" y="0" type="line"/>
      <point x="708" y="76"/>
      <point x="735" y="169"/>
      <point x="735" y="313" type="curve" smooth="yes"/>
      <point x="735" y="497" type="line" smooth="yes"/>
      <point x="735" y="735"/>
      <point x="616" y="860"/>
      <point x="411" y="905" type="curve"/>
      <point x="208" y="861"/>
      <point x="86" y="735"/>
      <point x="86" y="497" type="curve" smooth="yes"/>
      <point x="86" y="313" type="line" smooth="yes"/>
      <point x="86" y="169"/>
      <point x="113" y="76"/>
    </contour>
    <contour>
      <point x="325" y="808" type="line"/>
      <point x="496" y="808" type="line"/>
      <point x="496" y="1167" type="line"/>
      <point x="325" y="1167" type="line"/>
    </contour>
    <contour>
      <point x="34" y="1104" type="line"/>
      <point x="786" y="1104" type="line"/>
      <point x="786" y="1238" type="line"/>
      <point x="34" y="1238" type="line"/>
    </contour>
    <component base="_cap.shiro_left"/>
    <component base="_cap.shiro_right" xOffset="560"/>
  </outline>
</glyph>
<glyph name="Pa.gm" format="2">
  <advance width="843"/>
  <unicode hex="0A2A"/>
  <anchor x="943" y="100" name="bottom"/>
  <anchor x="861" y="100" name="bottom1"/>
  <anchor x="754" y="1200" name="top"/>
  <outline>
    <contour>
      <point x="393" y="195" type="curve" smooth="yes"/>
      <point x="449" y="195"/>
      <point x="496" y="206"/>
      <point x="521" y="221" type="curve"/>
      <point x="562" y="351" type="line"/>
      <point x="577" y="351" type="line"/>
      <point x="578" y="400" type="line"/>
      <point x="548" y="370"/>
      <point x="496" y="342"/>
      <point x="425" y="342" type="curve" smooth="yes"/>
      <point x="339" y="342"/>
      <point x="269" y="379"/>
      <point x="230" y="442" type="curve"/>
      <point x="237" y="384" type="line"/>
      <point x="275" y="509"/>
      <point x="298" y="710"/>
      <point x="298" y="941" type="curve" smooth="yes"/>
      <point x="298" y="1037"/>
      <point x="294" y="1136"/>
      <point x="286" y="1238" type="curve"/>
      <point x="31" y="1238" type="line"/>
      <point x="31" y="1104" type="line"/>
      <point x="121" y="1104" type="line"/>
      <point x="125" y="1035"/>
      <point x="127" y="967"/>
      <point x="127" y="902" type="curve" smooth="yes"/>
      <point x="127" y="658"/>
      <point x="103" y="502"/>
      <point x="61" y="378" type="curve"/>
      <point x="124" y="262"/>
      <point x="240" y="195"/>
    </contour>
    <component base="_danda" xOffset="377"/>
    <component base="_cap.shiro_left"/>
  </outline>
</glyph>
<glyph name="Pha.gm" format="2">
  <advance width="762"/>
  <unicode hex="0A2B"/>
  <anchor x="819" y="100" name="bottom"/>
  <anchor x="850" y="100" name="bottom1"/>
  <anchor x="663" y="1200" name="top"/>
  <outline>
    <contour>
      <point x="424" y="-18" type="curve" smooth="yes"/>
      <point x="602" y="-18"/>
      <point x="706" y="89"/>
      <point x="706" y="243" type="curve" smooth="yes"/>
      <point x="706" y="251" type="line" smooth="yes"/>
      <point x="706" y="407"/>
      <point x="632" y="501"/>
      <point x="485" y="501" type="curve" smooth="yes"/>
      <point x="308" y="501"/>
      <point x="258" y="411"/>
      <point x="266" y="209" type="curve"/>
      <point x="284" y="180" type="line"/>
      <point x="289" y="302"/>
      <point x="348" y="359"/>
      <point x="425" y="359" type="curve" smooth="yes"/>
      <point x="501" y="359"/>
      <point x="543" y="317"/>
      <point x="543" y="249" type="curve" smooth="yes"/>
      <point x="543" y="243" type="line" smooth="yes"/>
      <point x="543" y="168"/>
      <point x="499" y="123"/>
      <point x="425" y="123" type="curve" smooth="yes"/>
      <point x="301" y="123"/>
      <point x="255" y="262"/>
      <point x="255" y="428" type="curve" smooth="yes"/>
      <point x="255" y="559" type="line" smooth="yes"/>
      <point x="255" y="683"/>
      <point x="313" y="745"/>
      <point x="416" y="745" type="curve" smooth="yes"/>
      <point x="640" y="745" type="line"/>
      <point x="640" y="1177" type="line"/>
      <point x="470" y="1177" type="line"/>
      <point x="470" y="880" type="line"/>
      <point x="360" y="880" type="line" smooth="yes"/>
      <point x="181" y="880"/>
      <point x="82" y="768"/>
      <point x="82" y="567" type="curve" smooth="yes"/>
      <point x="82" y="428" type="line" smooth="yes"/>
      <point x="82" y="146"/>
      <point x="208" y="-18"/>
    </contour>
    <contour>
      <point x="39" y="1104" type="line"/>
      <point x="559" y="1104" type="line"/>
      <point x="563" y="1104" type="line"/>
      <point x="749" y="1104" type="line"/>
      <point x="749" y="1238" type="line"/>
      <point x="39" y="1238" type="line"/>
    </contour>
    <component base="_cap.shiro_left"/>
    <component base="_cap.shiro_right" xOffset="499"/>
  </outline>
</glyph>
<glyph name="Ba.gm" format="2">
  <advance width="831"/>
  <unicode hex="0A2C"/>
  <anchor x="931" y="100" name="bottom"/>
  <anchor x="884" y="100" name="bottom1"/>
  <anchor x="742" y="1200" name="top"/>
  <outline>
    <contour>
      <point x="370" y="148" type="curve" smooth="yes"/>
      <point x="422" y="148"/>
      <point x="474" y="157"/>
      <point x="510" y="171" type="curve"/>
      <point x="546" y="297" type="line"/>
      <point x="560" y="297" type="line"/>
      <point x="553" y="343" type="line"/>
      <point x="528" y="317"/>
      <point x="473" y="295"/>
      <point x="415" y="295" type="curve" smooth="yes"/>
      <point x="309" y="295"/>
      <point x="262" y="368"/>
      <point x="262" y="485" type="curve" smooth="yes"/>
      <point x="262" y="588" type="line"/>
      <point x="236" y="542" type="line"/>
      <point x="312" y="582"/>
      <point x="452" y="633"/>
      <point x="612" y="679" type="curve"/>
      <point x="612" y="822" type="line"/>
      <point x="536" y="804"/>
      <point x="427" y="772"/>
      <point x="325" y="740" type="curve"/>
      <point x="325" y="738" type="line"/>
      <point x="249" y="715"/>
      <point x="159" y="675"/>
      <point x="91" y="644" type="curve"/>
      <point x="91" y="478" type="line" smooth="yes"/>
      <point x="91" y="265"/>
      <point x="191" y="148"/>
    </contour>
    <contour>
      <point x="406" y="732" type="curve"/>
      <point x="454" y="753" type="line"/>
      <point x="315" y="766"/>
      <point x="281" y="853"/>
      <point x="281" y="982" type="curve" smooth="yes"/>
      <point x="281" y="1175" type="line"/>
      <point x="99" y="1175" type="line"/>
      <point x="99" y="1003" type="line" smooth="yes"/>
      <point x="99" y="842"/>
      <point x="170" y="742"/>
    </contour>
    <contour>
      <point x="22" y="1104" type="line"/>
      <point x="188" y="1104" type="line"/>
      <point x="194" y="1111" type="line"/>
      <point x="619" y="1111" type="line"/>
      <point x="628" y="1104" type="line"/>
      <point x="670" y="1104" type="line"/>
      <point x="670" y="1238" type="line"/>
      <point x="22" y="1238" type="line"/>
    </contour>
    <component base="_danda" xOffset="365"/>
    <component base="_cap.shiro_left"/>
  </outline>
</glyph>
<glyph name="Bha.gm" format="2">
  <advance width="734"/>
  <unicode hex="0A2D"/>
  <anchor x="744" y="100" name="bottom"/>
  <anchor x="779" y="100" name="bottom1"/>
  <anchor x="671" y="1200" name="top"/>
  <outline>
    <contour>
      <point x="312" y="-14" type="curve" smooth="yes"/>
      <point x="538" y="-14"/>
      <point x="653" y="95"/>
      <point x="653" y="309" type="curve" smooth="yes"/>
      <point x="653" y="369" type="line" smooth="yes"/>
      <point x="653" y="500"/>
      <point x="624" y="596"/>
      <point x="562" y="664" type="curve"/>
      <point x="521" y="706" type="line"/>
      <point x="486" y="864"/>
      <point x="406" y="929"/>
      <point x="291" y="929" type="curve" smooth="yes"/>
      <point x="161" y="929"/>
      <point x="63" y="848"/>
      <point x="63" y="673" type="curve" smooth="yes"/>
      <point x="63" y="634" type="line" smooth="yes"/>
      <point x="63" y="464"/>
      <point x="148" y="377"/>
      <point x="291" y="377" type="curve" smooth="yes"/>
      <point x="408" y="377"/>
      <point x="486" y="438"/>
      <point x="521" y="589" type="curve"/>
      <point x="562" y="631" type="line"/>
      <point x="562" y="640" type="line"/>
      <point x="624" y="729"/>
      <point x="648" y="814"/>
      <point x="648" y="962" type="curve" smooth="yes"/>
      <point x="648" y="1169" type="line"/>
      <point x="475" y="1169" type="line"/>
      <point x="475" y="970" type="line" smooth="yes"/>
      <point x="475" y="843"/>
      <point x="468" y="811"/>
      <point x="448" y="747" type="curve"/>
      <point x="464" y="698" type="line"/>
      <point x="435" y="567"/>
      <point x="375" y="522"/>
      <point x="330" y="522" type="curve" smooth="yes"/>
      <point x="275" y="522"/>
      <point x="233" y="558"/>
      <point x="233" y="633" type="curve" smooth="yes"/>
      <point x="233" y="664" type="line" smooth="yes"/>
      <point x="233" y="743"/>
      <point x="274" y="779"/>
      <point x="330" y="779" type="curve" smooth="yes"/>
      <point x="385" y="779"/>
      <point x="436" y="721"/>
      <point x="464" y="602" type="curve"/>
      <point x="442" y="560" type="line"/>
      <point x="463" y="524"/>
      <point x="480" y="476"/>
      <point x="480" y="407" type="curve" smooth="yes"/>
      <point x="480" y="335" type="line" smooth="yes"/>
      <point x="480" y="210"/>
      <point x="424" y="135"/>
      <point x="285" y="135" type="curve" smooth="yes"/>
      <point x="201" y="135"/>
      <point x="117" y="163"/>
      <point x="58" y="203" type="curve"/>
      <point x="68" y="44" type="line"/>
      <point x="120" y="12"/>
      <point x="209" y="-14"/>
    </contour>
    <contour>
      <point x="29" y="1104" type="line"/>
      <point x="706" y="1104" type="line"/>
      <point x="706" y="1238" type="line"/>
      <point x="29" y="1238" type="line"/>
    </contour>
    <component base="_cap.shiro_left"/>
    <component base="_cap.shiro_right" xOffset="472"/>
  </outline>
</glyph>
<glyph name="Ma.gm" format="2">
  <advance width="826"/>
  <unicode hex="0A2E"/>
  <anchor x="926" y="100" name="bottom"/>
  <anchor x="850" y="100" name="bottom1"/>
  <anchor x="736" y="1200" name="top"/>
  <outline>
    <contour>
      <point x="96" y="95" type="curve"/>
      <point x="269" y="95" type="line"/>
      <point x="285" y="238"/>
      <point x="295" y="411"/>
      <point x="295" y="602" type="curve"/>
      <point x="295" y="802"/>
      <point x="288" y="1018"/>
      <point x="271" y="1238" type="curve"/>
      <point x="34" y="1238" type="line"/>
      <point x="34" y="1104" type="line"/>
      <point x="109" y="1104" type="line"/>
      <point x="120" y="918"/>
      <point x="125" y="753"/>
      <point x="125" y="599" type="curve"/>
      <point x="125" y="419"/>
      <point x="114" y="240"/>
    </contour>
    <contour>
      <point x="198" y="422" type="line"/>
      <point x="637" y="422" type="line"/>
      <point x="637" y="574" type="line"/>
      <point x="198" y="574" type="line"/>
    </contour>
    <component base="_danda" xOffset="360"/>
    <component base="_cap.shiro_left"/>
  </outline>
</glyph>
<glyph name="Ya.gm" format="2">
  <advance width="1103"/>
  <unicode hex="0A2F"/>
  <anchor x="1203" y="100" name="bottom"/>
  <anchor x="983" y="100" name="bottom1"/>
  <anchor x="1013" y="1200" name="top"/>
  <outline>
    <contour>
      <point x="408" y="169" type="curve" smooth="yes"/>
      <point x="507" y="169"/>
      <point x="583" y="185"/>
      <point x="634" y="216" type="curve"/>
      <point x="634" y="658" type="line"/>
      <point x="899" y="658" type="line"/>
      <point x="899" y="807" type="line"/>
      <point x="470" y="807" type="line"/>
      <point x="470" y="295" type="line"/>
      <point x="510" y="338" type="line"/>
      <point x="485" y="322"/>
      <point x="449" y="313"/>
      <point x="402" y="313" type="curve" smooth="yes"/>
      <point x="330" y="313"/>
      <point x="274" y="340"/>
      <point x="241" y="390" type="curve"/>
      <point x="277" y="512"/>
      <point x="298" y="669"/>
      <point x="298" y="876" type="curve" smooth="yes"/>
      <point x="298" y="958"/>
      <point x="296" y="1056"/>
      <point x="286" y="1179" type="curve"/>
      <point x="112" y="1179" type="line"/>
      <point x="124" y="1058"/>
      <point x="127" y="960"/>
      <point x="127" y="878" type="curve" smooth="yes"/>
      <point x="127" y="660"/>
      <point x="106" y="491"/>
      <point x="64" y="353" type="curve"/>
      <point x="123" y="232"/>
      <point x="241" y="169"/>
    </contour>
    <contour>
      <point x="42" y="1104" type="line"/>
      <point x="879" y="1104" type="line"/>
      <point x="879" y="1238" type="line"/>
      <point x="42" y="1238" type="line"/>
    </contour>
    <component base="_danda" xOffset="637"/>
    <component base="_cap.shiro_left"/>
  </outline>
</glyph>
<glyph name="Ra.gm" format="2">
  <advance width="791"/>
  <unicode hex="0A30"/>
  <anchor x="789" y="100" name="bottom"/>
  <anchor x="838" y="100" name="bottom1"/>
  <anchor x="702" y="1200" name="top"/>
  <outline>
    <contour>
      <point x="401" y="-18" type="curve" smooth="yes"/>
      <point x="583" y="-18"/>
      <point x="679" y="95"/>
      <point x="679" y="282" type="curve" smooth="yes"/>
      <point x="679" y="1136" type="line"/>
      <point x="509" y="1136" type="line"/>
      <point x="509" y="783" type="line"/>
      <point x="512" y="763" type="line"/>
      <point x="512" y="287" type="line"/>
      <point x="512" y="186"/>
      <point x="482" y="127"/>
      <point x="401" y="127" type="curve" smooth="yes"/>
      <point x="299" y="127"/>
      <point x="251" y="239"/>
      <point x="251" y="392" type="curve" smooth="yes"/>
      <point x="251" y="508" type="line" smooth="yes"/>
      <point x="251" y="637"/>
      <point x="290" y="697"/>
      <point x="391" y="697" type="curve" smooth="yes"/>
      <point x="582" y="697" type="line"/>
      <point x="582" y="844" type="line"/>
      <point x="380" y="844" type="line" smooth="yes"/>
      <point x="169" y="844"/>
      <point x="81" y="729"/>
      <point x="81" y="514" type="curve" smooth="yes"/>
      <point x="81" y="393" type="line" smooth="yes"/>
      <point x="81" y="166"/>
      <point x="176" y="-18"/>
    </contour>
    <contour>
      <point x="37" y="1104" type="line"/>
      <point x="753" y="1104" type="line"/>
      <point x="753" y="1238" type="line"/>
      <point x="37" y="1238" type="line"/>
    </contour>
    <component base="_cap.shiro_left"/>
    <component base="_cap.shiro_right" xOffset="528"/>
  </outline>
</glyph>
<glyph name="La.gm" format="2">
  <advance width="945"/>
  <unicode hex="0A32"/>
  <anchor x="1020" y="100" name="bottom"/>
  <anchor x="920" y="100" name="bottom1"/>
  <anchor x="814" y="1200" name="top"/>
  <outline>
    <contour>
      <point x="477" y="407" type="curve"/>
      <point x="636" y="557"/>
      <point x="770" y="836"/>
      <point x="792" y="1147" type="curve"/>
      <point x="792" y="1158" type="line"/>
      <point x="621" y="1158" type="line"/>
      <point x="621" y="1127" type="line"/>
      <point x="601" y="938"/>
      <point x="560" y="748"/>
      <point x="477" y="612" type="curve"/>
      <point x="384" y="744"/>
      <point x="342" y="941"/>
      <point x="327" y="1127" type="curve"/>
      <point x="327" y="1158" type="line"/>
      <point x="157" y="1158" type="line"/>
      <point x="157" y="1147" type="line"/>
      <point x="173" y="831"/>
      <point x="307" y="557"/>
    </contour>
    <contour>
      <point x="177" y="0" type="curve"/>
      <point x="337" y="0" type="line"/>
      <point x="351" y="0" type="line"/>
      <point x="289" y="98"/>
      <point x="260" y="204"/>
      <point x="260" y="334" type="curve" smooth="yes"/>
      <point x="260" y="452" type="line" smooth="yes"/>
      <point x="260" y="551"/>
      <point x="283" y="622"/>
      <point x="328" y="674" type="curve"/>
      <point x="277" y="826" type="line"/>
      <point x="152" y="769"/>
      <point x="90" y="645"/>
      <point x="90" y="467" type="curve" smooth="yes"/>
      <point x="90" y="332" type="line" smooth="yes"/>
      <point x="90" y="176"/>
      <point x="118" y="86"/>
    </contour>
    <contour>
      <point x="768" y="0" type="line"/>
      <point x="827" y="84"/>
      <point x="855" y="180"/>
      <point x="855" y="324" type="curve" smooth="yes"/>
      <point x="855" y="466" type="line" smooth="yes"/>
      <point x="855" y="645"/>
      <point x="794" y="767"/>
      <point x="663" y="826" type="curve"/>
      <point x="612" y="674" type="line"/>
      <point x="660" y="622"/>
      <point x="685" y="549"/>
      <point x="685" y="452" type="curve" smooth="yes"/>
      <point x="685" y="334" type="line" smooth="yes"/>
      <point x="685" y="203"/>
      <point x="656" y="98"/>
      <point x="594" y="0" type="curve"/>
      <point x="608" y="0" type="line"/>
    </contour>
    <contour>
      <point x="28" y="1104" type="line"/>
      <point x="899" y="1104" type="line"/>
      <point x="899" y="1238" type="line"/>
      <point x="28" y="1238" type="line"/>
    </contour>
    <component base="_cap.shiro_left"/>
    <component base="_cap.shiro_right" xOffset="682"/>
  </outline>
</glyph>
<glyph name="Va.gm" format="2">
  <advance width="779"/>
  <unicode hex="0A35"/>
  <anchor x="825" y="100" name="bottom"/>
  <anchor x="877" y="100" name="bottom1"/>
  <anchor x="707" y="1200" name="top"/>
  <outline>
    <contour>
      <point x="345" y="369" type="curve"/>
      <point x="666" y="369" type="line"/>
      <point x="666" y="509" type="line"/>
      <point x="362" y="509" type="line" smooth="yes"/>
      <point x="277" y="509"/>
      <point x="235" y="552"/>
      <point x="235" y="635" type="curve" smooth="yes"/>
      <point x="235" y="710"/>
      <point x="279" y="748"/>
      <point x="367" y="748" type="curve" smooth="yes"/>
      <point x="684" y="748" type="line"/>
      <point x="684" y="1161" type="line"/>
      <point x="511" y="1161" type="line"/>
      <point x="511" y="888" type="line"/>
      <point x="346" y="888" type="line" smooth="yes"/>
      <point x="158" y="888"/>
      <point x="59" y="800"/>
      <point x="59" y="635" type="curve" smooth="yes"/>
      <point x="59" y="461"/>
      <point x="158" y="369"/>
    </contour>
    <contour>
      <point x="614" y="-22" type="curve" smooth="yes"/>
      <point x="654" y="-22"/>
      <point x="675" y="-19"/>
      <point x="698" y="-13" type="curve"/>
      <point x="708" y="132" type="line"/>
      <point x="677" y="125"/>
      <point x="654" y="123"/>
      <point x="629" y="123" type="curve" smooth="yes"/>
      <point x="503" y="123"/>
      <point x="421" y="190"/>
      <point x="408" y="415" type="curve"/>
      <point x="236" y="415" type="line"/>
      <point x="269" y="98"/>
      <point x="399" y="-22"/>
    </contour>
    <contour>
      <point x="24" y="1104" type="line"/>
      <point x="598" y="1104" type="line"/>
      <point x="604" y="1104" type="line"/>
      <point x="765" y="1104" type="line"/>
      <point x="765" y="1238" type="line"/>
      <point x="24" y="1238" type="line"/>
    </contour>
    <component base="_cap.shiro_left"/>
    <component base="_cap.shiro_right" xOffset="516"/>
  </outline>
</glyph>
<glyph name="Sha.gm" format="2">
  <advance width="852"/>
  <unicode hex="0A36"/>
  <anchor x="952" y="100" name="bottom"/>
  <anchor x="866" y="100" name="bottom1"/>
  <anchor x="763" y="1200" name="top"/>
  <outline>
    <contour>
      <point x="96" y="95" type="curve"/>
      <point x="269" y="95" type="line"/>
      <point x="285" y="238"/>
      <point x="295" y="411"/>
      <point x="295" y="602" type="curve"/>
      <point x="295" y="802"/>
      <point x="288" y="1018"/>
      <point x="271" y="1238" type="curve"/>
      <point x="14" y="1238" type="line"/>
      <point x="14" y="1104" type="line"/>
      <point x="109" y="1104" type="line"/>
      <point x="120" y="918"/>
      <point x="125" y="753"/>
      <point x="125" y="599" type="curve"/>
      <point x="125" y="419"/>
      <point x="114" y="240"/>
    </contour>
    <contour>
      <point x="208" y="427" type="line"/>
      <point x="671" y="427" type="line"/>
      <point x="671" y="577" type="line"/>
      <point x="208" y="577" type="line"/>
    </contour>
    <contour>
      <point x="577" y="0" type="line"/>
      <point x="740" y="0" type="line"/>
      <point x="740" y="1104" type="line"/>
      <point x="775" y="1104" type="line"/>
      <point x="775" y="1238" type="line"/>
      <point x="572" y="1238" type="line"/>
      <point x="572" y="514" type="line"/>
      <point x="577" y="493" type="line"/>
    </contour>
    <contour>
      <point x="203" y="1104" type="line"/>
      <point x="651" y="1104" type="line"/>
      <point x="645" y="1238" type="line"/>
      <point x="197" y="1238" type="line"/>
    </contour>
    <contour>
      <point x="438" y="82" type="curve" smooth="yes"/>
      <point x="493" y="82"/>
      <point x="521" y="119"/>
      <point x="521" y="187" type="curve" smooth="yes"/>
      <point x="521" y="207" type="line" smooth="yes"/>
      <point x="521" y="275"/>
      <point x="493" y="312"/>
      <point x="438" y="312" type="curve" smooth="yes"/>
      <point x="382" y="312"/>
      <point x="355" y="275"/>
      <point x="355" y="207" type="curve" smooth="yes"/>
      <point x="355" y="187" type="line" smooth="yes"/>
      <point x="355" y="119"/>
      <point x="382" y="82"/>
    </contour>
    <component base="_cap.shiro_right" xOffset="589"/>
    <component base="_cap.shiro_left"/>
  </outline>
</glyph>
<glyph name="Sa.gm" format="2">
  <advance width="831"/>
  <unicode hex="0A38"/>
  <anchor x="931" y="100" name="bottom"/>
  <anchor x="852" y="100" name="bottom1"/>
  <anchor x="741" y="1200" name="top"/>
  <outline>
    <contour>
      <point x="96" y="95" type="curve"/>
      <point x="269" y="95" type="line"/>
      <point x="285" y="240"/>
      <point x="295" y="411"/>
      <point x="295" y="602" type="curve"/>
      <point x="295" y="802"/>
      <point x="288" y="1018"/>
      <point x="271" y="1238" type="curve"/>
      <point x="34" y="1238" type="line"/>
      <point x="34" y="1104" type="line"/>
      <point x="109" y="1104" type="line"/>
      <point x="120" y="918"/>
      <point x="125" y="753"/>
      <point x="125" y="599" type="curve"/>
      <point x="125" y="419"/>
      <point x="114" y="240"/>
    </contour>
    <contour>
      <point x="213" y="422" type="line"/>
      <point x="622" y="422" type="line"/>
      <point x="622" y="572" type="line"/>
      <point x="213" y="572" type="line"/>
    </contour>
    <contour>
      <point x="93" y="1104" type="line"/>
      <point x="697" y="1104" type="line"/>
      <point x="697" y="1238" type="line"/>
      <point x="93" y="1238" type="line"/>
    </contour>
    <component base="_cap.shiro_left"/>
    <component base="_danda" xOffset="365"/>
  </outline>
</glyph>
<glyph name="Ha.gm" format="2">
  <advance width="789"/>
  <unicode hex="0A39"/>
  <anchor x="784" y="100" name="bottom"/>
  <anchor x="837" y="100" name="bottom1"/>
  <anchor x="701" y="1200" name="top"/>
  <outline>
    <contour>
      <point x="398" y="-18" type="curve" smooth="yes"/>
      <point x="582" y="-18"/>
      <point x="678" y="94"/>
      <point x="678" y="282" type="curve" smooth="yes"/>
      <point x="678" y="1186" type="line"/>
      <point x="509" y="1186" type="line"/>
      <point x="509" y="287" type="line" smooth="yes"/>
      <point x="509" y="186"/>
      <point x="479" y="127"/>
      <point x="398" y="127" type="curve" smooth="yes"/>
      <point x="296" y="127"/>
      <point x="248" y="239"/>
      <point x="248" y="392" type="curve" smooth="yes"/>
      <point x="248" y="516" type="line" smooth="yes"/>
      <point x="248" y="641"/>
      <point x="288" y="696"/>
      <point x="380" y="696" type="curve" smooth="yes"/>
      <point x="395" y="696" type="line"/>
      <point x="410" y="844" type="line"/>
      <point x="369" y="844" type="line" smooth="yes"/>
      <point x="171" y="844"/>
      <point x="78" y="733"/>
      <point x="78" y="522" type="curve" smooth="yes"/>
      <point x="78" y="393" type="line" smooth="yes"/>
      <point x="78" y="166"/>
      <point x="173" y="-18"/>
    </contour>
    <contour>
      <point x="31" y="1104" type="line"/>
      <point x="749" y="1104" type="line"/>
      <point x="749" y="1238" type="line"/>
      <point x="31" y="1238" type="line"/>
    </contour>
    <component base="_cap.shiro_left"/>
    <component base="_cap.shiro_right" xOffset="526"/>
  </outline>
</glyph>
<glyph name="Nukta.gm" format="2">
  <unicode hex="0A3C"/>
  <outline>
    <contour>
      <point x="-436" y="-286" type="curve" smooth="yes"/>
      <point x="-385" y="-286"/>
      <point x="-359" y="-254"/>
      <point x="-359" y="-193" type="curve" smooth="yes"/>
      <point x="-359" y="-176" type="line" smooth="yes"/>
      <point x="-359" y="-115"/>
      <point x="-385" y="-83"/>
      <point x="-436" y="-83" type="curve" smooth="yes"/>
      <point x="-487" y="-83"/>
      <point x="-512" y="-115"/>
      <point x="-512" y="-176" type="curve" smooth="yes"/>
      <point x="-512" y="-193" type="line" smooth="yes"/>
      <point x="-512" y="-254"/>
      <point x="-487" y="-286"/>
    </contour>
  </outline>
</glyph>
<glyph name="MatraU.gm" format="2">
  <unicode hex="0A41"/>
  <anchor x="600" y="100" name="_bottom1"/>
  <outline>
    <contour>
      <point x="160" y="-305" type="curve" smooth="yes"/>
      <point x="256" y="-305"/>
      <point x="357" y="-282"/>
      <point x="418" y="-253" type="curve"/>
      <point x="427" y="-114" type="line"/>
      <point x="365" y="-144"/>
      <point x="264" y="-167"/>
      <point x="161" y="-167" type="curve" smooth="yes"/>
      <point x="55" y="-167"/>
      <point x="-48" y="-145"/>
      <point x="-109" y="-114" type="curve"/>
      <point x="-101" y="-253" type="line"/>
      <point x="-40" y="-283"/>
      <point x="55" y="-305"/>
    </contour>
  </outline>
</glyph>
<glyph name="MatraUu.gm" format="2">
  <unicode hex="0A42"/>
  <anchor x="600" y="100" name="_bottom1"/>
  <outline>
    <contour>
      <point x="155" y="-258" type="curve" smooth="yes"/>
      <point x="256" y="-258"/>
      <point x="359" y="-237"/>
      <point x="418" y="-211" type="curve"/>
      <point x="425" y="-80" type="line"/>
      <point x="364" y="-105"/>
      <point x="262" y="-128"/>
      <point x="160" y="-128" type="curve" smooth="yes"/>
      <point x="54" y="-128"/>
      <point x="-49" y="-106"/>
      <point x="-111" y="-80" type="curve"/>
      <point x="-104" y="-211" type="line"/>
      <point x="-44" y="-238"/>
      <point x="52" y="-258"/>
    </contour>
    <contour>
      <point x="155" y="-458" type="curve" smooth="yes"/>
      <point x="256" y="-458"/>
      <point x="359" y="-437"/>
      <point x="418" y="-411" type="curve"/>
      <point x="425" y="-280" type="line"/>
      <point x="364" y="-305"/>
      <point x="262" y="-328"/>
      <point x="160" y="-328" type="curve" smooth="yes"/>
      <point x="54" y="-328"/>
      <point x="-49" y="-306"/>
      <point x="-111" y="-280" type="curve"/>
      <point x="-104" y="-411" type="line"/>
      <point x="-44" y="-438"/>
      <point x="52" y="-458"/>
    </contour>
  </outline>
</glyph>
<glyph name="MatraEe.gm" format="2">
  <unicode hex="0A47"/>
  <anchor x="400" y="1200" name="_top"/>
  <anchor x="689" y="1363" name="top1"/>
  <outline>
    <contour>
      <point x="282" y="1215" type="line"/>
      <point x="377" y="1215" type="line"/>
      <point x="348" y="1597"/>
      <point x="219" y="1700"/>
      <point x="-31" y="1700" type="curve" smooth="yes"/>
      <point x="-66" y="1700"/>
      <point x="-99" y="1696"/>
      <point x="-136" y="1691" type="curve"/>
      <point x="-145" y="1539" type="line"/>
      <point x="-97" y="1546"/>
      <point x="-64" y="1548"/>
      <point x="-21" y="1548" type="curve" smooth="yes"/>
      <point x="141" y="1548"/>
      <point x="233" y="1486"/>
      <point x="280" y="1226" type="curve" smooth="yes"/>
    </contour>
  </outline>
</glyph>
<glyph name="MatraAi.gm" format="2">
  <unicode hex="0A48"/>
  <anchor x="400" y="1200" name="_top"/>
  <anchor x="731" y="1398" name="top1"/>
  <outline>
    <contour>
      <point x="302" y="1216" type="line"/>
      <point x="376" y="1216" type="line"/>
      <point x="369" y="1364" type="line" smooth="yes"/>
      <point x="354" y="1677"/>
      <point x="231" y="1797"/>
      <point x="-18" y="1797" type="curve" smooth="yes"/>
      <point x="-60" y="1797"/>
      <point x="-105" y="1793"/>
      <point x="-161" y="1784" type="curve"/>
      <point x="-171" y="1640" type="line"/>
      <point x="-118" y="1649"/>
      <point x="-66" y="1654"/>
      <point x="-22" y="1654" type="curve" smooth="yes"/>
      <point x="180" y="1654"/>
      <point x="266" y="1554"/>
      <point x="293" y="1373" type="curve"/>
      <point x="280" y="1370" type="line"/>
    </contour>
    <contour>
      <point x="266" y="1216" type="line"/>
      <point x="315" y="1216" type="line"/>
      <point x="312" y="1264" type="line" smooth="yes"/>
      <point x="301" y="1448"/>
      <point x="178" y="1530"/>
      <point x="5" y="1530" type="curve" smooth="yes"/>
      <point x="-35" y="1530"/>
      <point x="-77" y="1526"/>
      <point x="-118" y="1520" type="curve"/>
      <point x="-128" y="1377" type="line"/>
      <point x="-70" y="1384"/>
      <point x="-42" y="1387"/>
      <point x="13" y="1387" type="curve" smooth="yes"/>
      <point x="173" y="1387"/>
      <point x="258" y="1344"/>
      <point x="265" y="1233" type="curve" smooth="yes"/>
    </contour>
  </outline>
</glyph>
<glyph name="MatraOo.gm" format="2">
  <unicode hex="0A4B"/>
  <anchor x="400" y="1200" name="_top"/>
  <anchor x="704" y="1372" name="top1"/>
  <outline>
    <contour>
      <point x="277" y="1223" type="curve"/>
      <point x="378" y="1223" type="line"/>
      <point x="382" y="1265"/>
      <point x="384" y="1302"/>
      <point x="384" y="1330" type="curve" smooth="yes"/>
      <point x="384" y="1482"/>
      <point x="321" y="1546"/>
      <point x="144" y="1572" type="curve" smooth="yes"/>
      <point x="64" y="1584" type="line" smooth="yes"/>
      <point x="-18" y="1597"/>
      <point x="-60" y="1637"/>
      <point x="-65" y="1757" type="curve"/>
      <point x="-166" y="1757" type="line"/>
      <point x="-166" y="1666" type="line" smooth="yes"/>
      <point x="-166" y="1508"/>
      <point x="-89" y="1448"/>
      <point x="57" y="1428" type="curve" smooth="yes"/>
      <point x="141" y="1415" type="line" smooth="yes"/>
      <point x="242" y="1399"/>
      <point x="275" y="1350"/>
    </contour>
  </outline>
</glyph>
<glyph name="MatraAu.gm" format="2">
  <unicode hex="0A4C"/>
  <anchor x="400" y="1200" name="_top"/>
  <anchor x="836" y="1448" name="top1"/>
  <outline>
    <contour>
      <point x="144" y="1355" type="curve"/>
      <point x="244" y="1355" type="line"/>
      <point x="231" y="1383"/>
      <point x="221" y="1414"/>
      <point x="221" y="1450" type="curve" smooth="yes"/>
      <point x="221" y="1504"/>
      <point x="251" y="1545"/>
      <point x="300" y="1545" type="curve" smooth="yes"/>
      <point x="349" y="1545"/>
      <point x="376" y="1506"/>
      <point x="376" y="1450" type="curve" smooth="yes"/>
      <point x="376" y="1414"/>
      <point x="367" y="1383"/>
      <point x="353" y="1355" type="curve"/>
      <point x="453" y="1355" type="line"/>
      <point x="484" y="1397"/>
      <point x="502" y="1445"/>
      <point x="502" y="1501" type="curve" smooth="yes"/>
      <point x="502" y="1612"/>
      <point x="430" y="1692"/>
      <point x="300" y="1692" type="curve" smooth="yes"/>
      <point x="257" y="1692"/>
      <point x="211" y="1679"/>
      <point x="180" y="1643" type="curve"/>
      <point x="178" y="1623" type="line"/>
      <point x="125" y="1595"/>
      <point x="99" y="1542"/>
      <point x="99" y="1486" type="curve" smooth="yes"/>
      <point x="99" y="1434"/>
      <point x="116" y="1396"/>
    </contour>
    <contour>
      <point x="15" y="1554" type="curve" smooth="yes"/>
      <point x="70" y="1554"/>
      <point x="107" y="1574"/>
      <point x="137" y="1597" type="curve"/>
      <point x="142" y="1591" type="line"/>
      <point x="296" y="1593" type="line"/>
      <point x="300" y="1692" type="line"/>
      <point x="132" y="1691" type="line" smooth="yes"/>
      <point x="26" y="1690"/>
      <point x="-21" y="1714"/>
      <point x="-27" y="1821" type="curve"/>
      <point x="-133" y="1821" type="line"/>
      <point x="-130" y="1742" type="line" smooth="yes"/>
      <point x="-125" y="1604"/>
      <point x="-71" y="1554"/>
    </contour>
  </outline>
</glyph>
<glyph name="Virama.gm" format="2">
  <unicode hex="0A4D"/>
  <anchor x="600" y="100" name="_bottom"/>
  <outline>
    <contour>
      <point x="456" y="-427" type="line"/>
      <point x="616" y="-429" type="line"/>
      <point x="402" y="-121" type="line"/>
      <point x="225" y="-121" type="line"/>
    </contour>
  </outline>
</glyph>
<glyph name="Udaat.gm" format="2">
  <unicode hex="0A51"/>
  <anchor x="600" y="100" name="_bottom"/>
  <anchor x="600" y="287" name="bottom1"/>
  <outline>
    <contour>
      <point x="586" y="-428" type="curve"/>
      <point x="586" y="-295" type="line"/>
      <point x="458" y="-295"/>
      <point x="388" y="-237"/>
      <point x="388" y="-121" type="curve"/>
      <point x="219" y="-121" type="line"/>
      <point x="219" y="-331"/>
      <point x="336" y="-428"/>
    </contour>
  </outline>
</glyph>
<glyph name="Za.gm" format="2">
  <advance width="873"/>
  <unicode hex="0A5B"/>
  <anchor x="973" y="100" name="bottom"/>
  <anchor x="878" y="100" name="bottom1"/>
  <anchor x="784" y="1200" name="top"/>
  <outline>
    <contour>
      <point x="91" y="0" type="curve"/>
      <point x="259" y="0" type="line"/>
      <point x="276" y="169"/>
      <point x="285" y="373"/>
      <point x="285" y="560" type="curve" smooth="yes"/>
      <point x="285" y="693"/>
      <point x="279" y="824"/>
      <point x="267" y="939" type="curve"/>
      <point x="99" y="911" type="line"/>
      <point x="110" y="802"/>
      <point x="116" y="695"/>
      <point x="116" y="564" type="curve" smooth="yes"/>
      <point x="116" y="376"/>
      <point x="107" y="171"/>
    </contour>
    <contour>
      <point x="207" y="558" type="line"/>
      <point x="677" y="558" type="line"/>
      <point x="677" y="707" type="line"/>
      <point x="207" y="707" type="line"/>
    </contour>
    <contour>
      <point x="20" y="1104" type="line"/>
      <point x="696" y="1104" type="line"/>
      <point x="696" y="1238" type="line"/>
      <point x="20" y="1238" type="line"/>
    </contour>
    <contour>
      <point x="442" y="110" type="curve" smooth="yes"/>
      <point x="497" y="110"/>
      <point x="525" y="147"/>
      <point x="525" y="215" type="curve" smooth="yes"/>
      <point x="525" y="235" type="line" smooth="yes"/>
      <point x="525" y="303"/>
      <point x="497" y="340"/>
      <point x="442" y="340" type="curve" smooth="yes"/>
      <point x="386" y="340"/>
      <point x="359" y="303"/>
      <point x="359" y="235" type="curve" smooth="yes"/>
      <point x="359" y="215" type="line" smooth="yes"/>
      <point x="359" y="147"/>
      <point x="386" y="110"/>
    </contour>
    <component base="_danda" xOffset="407"/>
    <component base="_cap.shiro_left"/>
  </outline>
</glyph>
<glyph name="Rra.gm" format="2">
  <advance width="669"/>
  <unicode hex="0A5C"/>
  <anchor x="670" y="20" name="bottom"/>
  <anchor x="771" y="-5" name="bottom1"/>
  <anchor x="590" y="1200" name="top"/>
  <outline>
    <contour>
      <point x="277" y="49" type="curve" smooth="yes"/>
      <point x="489" y="49"/>
      <point x="581" y="165"/>
      <point x="581" y="350" type="curve" smooth="yes"/>
      <point x="581" y="428" type="line" smooth="yes"/>
      <point x="581" y="595"/>
      <point x="513" y="694"/>
      <point x="322" y="694" type="curve"/>
      <point x="383" y="625" type="line"/>
      <point x="383" y="692" type="line"/>
      <point x="499" y="692"/>
      <point x="567" y="791"/>
      <point x="567" y="925" type="curve" smooth="yes"/>
      <point x="567" y="1175" type="line"/>
      <point x="397" y="1175" type="line"/>
      <point x="397" y="935" type="line" smooth="yes"/>
      <point x="397" y="843"/>
      <point x="368" y="763"/>
      <point x="261" y="763" type="curve" smooth="yes"/>
      <point x="93" y="763" type="line"/>
      <point x="93" y="609" type="line"/>
      <point x="274" y="609" type="line" smooth="yes"/>
      <point x="379" y="609"/>
      <point x="411" y="534"/>
      <point x="411" y="426" type="curve"/>
      <point x="411" y="370" type="line" smooth="yes"/>
      <point x="411" y="258"/>
      <point x="358" y="194"/>
      <point x="250" y="194" type="curve" smooth="yes"/>
      <point x="175" y="194"/>
      <point x="102" y="222"/>
      <point x="49" y="262" type="curve"/>
      <point x="60" y="107" type="line"/>
      <point x="107" y="73"/>
      <point x="188" y="49"/>
    </contour>
    <contour>
      <point x="164" y="-164" type="line"/>
      <point x="318" y="-164" type="line"/>
      <point x="191" y="126" type="line"/>
      <point x="60" y="107" type="line"/>
    </contour>
    <contour>
      <point x="489" y="-164" type="line"/>
      <point x="645" y="-164" type="line"/>
      <point x="489" y="157" type="line"/>
      <point x="366" y="109" type="line"/>
    </contour>
    <contour>
      <point x="39" y="1104" type="line"/>
      <point x="644" y="1104" type="line"/>
      <point x="644" y="1238" type="line"/>
      <point x="39" y="1238" type="line"/>
    </contour>
    <component base="_cap.shiro_left"/>
    <component base="_cap.shiro_right" xOffset="407"/>
  </outline>
</glyph>
<glyph name="zero.gm" format="2">
  <advance width="715"/>
  <unicode hex="0A66"/>
  <outline>
    <contour>
      <point x="362" y="152" type="curve" smooth="yes"/>
      <point x="549" y="152"/>
      <point x="650" y="271"/>
      <point x="650" y="466" type="curve" smooth="yes"/>
      <point x="650" y="789" type="line" smooth="yes"/>
      <point x="650" y="985"/>
      <point x="546" y="1103"/>
      <point x="362" y="1103" type="curve" smooth="yes"/>
      <point x="177" y="1103"/>
      <point x="74" y="985"/>
      <point x="74" y="789" type="curve" smooth="yes"/>
      <point x="74" y="466" type="line" smooth="yes"/>
      <point x="74" y="271"/>
      <point x="180" y="152"/>
    </contour>
    <contour>
      <point x="362" y="303" type="curve" smooth="yes"/>
      <point x="283" y="303"/>
      <point x="247" y="357"/>
      <point x="247" y="474" type="curve" smooth="yes"/>
      <point x="247" y="781" type="line" smooth="yes"/>
      <point x="247" y="898"/>
      <point x="281" y="952"/>
      <point x="362" y="952" type="curve" smooth="yes"/>
      <point x="435" y="952"/>
      <point x="477" y="898"/>
      <point x="477" y="781" type="curve" smooth="yes"/>
      <point x="477" y="474" type="line" smooth="yes"/>
      <point x="477" y="357"/>
      <point x="437" y="303"/>
    </contour>
  </outline>
</glyph>
<glyph name="one.gm" format="2">
  <advance width="734"/>
  <unicode hex="0A67"/>
  <outline>
    <contour>
      <point x="475" y="0" type="line"/>
      <point x="646" y="0" type="line"/>
      <point x="646" y="936" type="line" smooth="yes"/>
      <point x="646" y="1144"/>
      <point x="551" y="1260"/>
      <point x="360" y="1260" type="curve" smooth="yes"/>
      <point x="169" y="1260"/>
      <point x="74" y="1144"/>
      <point x="74" y="936" type="curve" smooth="yes"/>
      <point x="74" y="778" type="line" smooth="yes"/>
      <point x="74" y="561"/>
      <point x="177" y="475"/>
      <point x="323" y="475" type="curve" smooth="yes"/>
      <point x="362" y="475"/>
      <point x="402" y="482"/>
      <point x="430" y="493" type="curve"/>
      <point x="472" y="620" type="line"/>
      <point x="490" y="620" type="line"/>
      <point x="475" y="671" type="line"/>
      <point x="453" y="641"/>
      <point x="414" y="620"/>
      <point x="369" y="620" type="curve" smooth="yes"/>
      <point x="284" y="620"/>
      <point x="245" y="670"/>
      <point x="245" y="783" type="curve" smooth="yes"/>
      <point x="245" y="938" type="line" smooth="yes"/>
      <point x="245" y="1053"/>
      <point x="278" y="1108"/>
      <point x="360" y="1108" type="curve" smooth="yes"/>
      <point x="442" y="1108"/>
      <point x="475" y="1053"/>
      <point x="475" y="938" type="curve" smooth="yes"/>
    </contour>
  </outline>
</glyph>
<glyph name="two.gm" format="2">
  <advance width="645"/>
  <unicode hex="0A68"/>
  <outline>
    <contour>
      <point x="251" y="371" type="curve" smooth="yes"/>
      <point x="466" y="371"/>
      <point x="571" y="499"/>
      <point x="571" y="717" type="curve" smooth="yes"/>
      <point x="571" y="910" type="line" smooth="yes"/>
      <point x="571" y="1141"/>
      <point x="470" y="1260"/>
      <point x="285" y="1260" type="curve" smooth="yes"/>
      <point x="209" y="1260"/>
      <point x="135" y="1237"/>
      <point x="80" y="1196" type="curve"/>
      <point x="80" y="1039" type="line"/>
      <point x="127" y="1083"/>
      <point x="189" y="1106"/>
      <point x="252" y="1106" type="curve" smooth="yes"/>
      <point x="347" y="1106"/>
      <point x="397" y="1039"/>
      <point x="397" y="913" type="curve" smooth="yes"/>
      <point x="397" y="716" type="line" smooth="yes"/>
      <point x="397" y="597"/>
      <point x="338" y="530"/>
      <point x="230" y="530" type="curve" smooth="yes"/>
      <point x="164" y="530"/>
      <point x="116" y="550"/>
      <point x="64" y="583" type="curve"/>
      <point x="73" y="421" type="line"/>
      <point x="119" y="397"/>
      <point x="185" y="371"/>
    </contour>
    <contour>
      <point x="334" y="0" type="line"/>
      <point x="537" y="0" type="line"/>
      <point x="466" y="129"/>
      <point x="378" y="258"/>
      <point x="279" y="381" type="curve"/>
      <point x="279" y="481" type="line"/>
      <point x="113" y="429" type="line"/>
    </contour>
  </outline>
</glyph>
<glyph name="three.gm" format="2">
  <advance width="663"/>
  <unicode hex="0A69"/>
  <outline>
    <contour>
      <point x="284" y="83" type="curve" smooth="yes"/>
      <point x="484" y="83"/>
      <point x="586" y="195"/>
      <point x="586" y="387" type="curve" smooth="yes"/>
      <point x="586" y="430" type="line" smooth="yes"/>
      <point x="586" y="583"/>
      <point x="516" y="675"/>
      <point x="342" y="678" type="curve"/>
      <point x="397" y="612" type="line"/>
      <point x="397" y="678" type="line"/>
      <point x="515" y="681"/>
      <point x="577" y="771"/>
      <point x="577" y="911" type="curve" smooth="yes"/>
      <point x="577" y="966" type="line" smooth="yes"/>
      <point x="577" y="1158"/>
      <point x="477" y="1260"/>
      <point x="293" y="1260" type="curve" smooth="yes"/>
      <point x="217" y="1260"/>
      <point x="148" y="1239"/>
      <point x="86" y="1199" type="curve"/>
      <point x="86" y="1044" type="line"/>
      <point x="139" y="1086"/>
      <point x="198" y="1110"/>
      <point x="262" y="1110" type="curve" smooth="yes"/>
      <point x="355" y="1110"/>
      <point x="404" y="1054"/>
      <point x="404" y="948" type="curve" smooth="yes"/>
      <point x="404" y="918" type="line" smooth="yes"/>
      <point x="404" y="821"/>
      <point x="380" y="747"/>
      <point x="264" y="747" type="curve" smooth="yes"/>
      <point x="128" y="747" type="line"/>
      <point x="128" y="591" type="line"/>
      <point x="263" y="591" type="line"/>
      <point x="387" y="591"/>
      <point x="412" y="531"/>
      <point x="412" y="432" type="curve" smooth="yes"/>
      <point x="412" y="383" type="line" smooth="yes"/>
      <point x="412" y="288"/>
      <point x="353" y="233"/>
      <point x="261" y="233" type="curve" smooth="yes"/>
      <point x="183" y="233"/>
      <point x="114" y="266"/>
      <point x="59" y="309" type="curve"/>
      <point x="69" y="143" type="line"/>
      <point x="121" y="110"/>
      <point x="193" y="83"/>
    </contour>
    <contour>
      <point x="279" y="-145" type="line"/>
      <point x="494" y="-145" type="line"/>
      <point x="409" y="-46"/>
      <point x="344" y="33"/>
      <point x="278" y="101" type="curve"/>
      <point x="274" y="190" type="line"/>
      <point x="97" y="160" type="line"/>
    </contour>
  </outline>
</glyph>
<glyph name="four.gm" format="2">
  <advance width="778"/>
  <unicode hex="0A6A"/>
  <outline>
    <contour>
      <point x="392" y="-17" type="curve" smooth="yes"/>
      <point x="590" y="-17"/>
      <point x="691" y="93"/>
      <point x="691" y="274" type="curve" smooth="yes"/>
      <point x="691" y="389" type="line" smooth="yes"/>
      <point x="691" y="534"/>
      <point x="633" y="621"/>
      <point x="521" y="652" type="curve"/>
      <point x="521" y="656" type="line"/>
      <point x="641" y="682"/>
      <point x="696" y="773"/>
      <point x="696" y="906" type="curve" smooth="yes"/>
      <point x="696" y="1024"/>
      <point x="687" y="1138"/>
      <point x="671" y="1238" type="curve"/>
      <point x="497" y="1238" type="line"/>
      <point x="514" y="1127"/>
      <point x="522" y="1018"/>
      <point x="522" y="892" type="curve" smooth="yes"/>
      <point x="522" y="789"/>
      <point x="485" y="728"/>
      <point x="390" y="728" type="curve" smooth="yes"/>
      <point x="299" y="728"/>
      <point x="256" y="789"/>
      <point x="256" y="892" type="curve" smooth="yes"/>
      <point x="256" y="1018"/>
      <point x="265" y="1127"/>
      <point x="281" y="1238" type="curve"/>
      <point x="108" y="1238" type="line"/>
      <point x="91" y="1138"/>
      <point x="83" y="1024"/>
      <point x="83" y="906" type="curve" smooth="yes"/>
      <point x="83" y="772"/>
      <point x="140" y="682"/>
      <point x="252" y="654" type="curve"/>
      <point x="252" y="650" type="line"/>
      <point x="140" y="621"/>
      <point x="88" y="537"/>
      <point x="88" y="388" type="curve" smooth="yes"/>
      <point x="88" y="274" type="line" smooth="yes"/>
      <point x="88" y="93"/>
      <point x="194" y="-17"/>
    </contour>
    <contour>
      <point x="392" y="128" type="curve" smooth="yes"/>
      <point x="307" y="128"/>
      <point x="261" y="183"/>
      <point x="261" y="280" type="curve" smooth="yes"/>
      <point x="261" y="413" type="line" smooth="yes"/>
      <point x="261" y="511"/>
      <point x="293" y="578"/>
      <point x="389" y="578" type="curve" smooth="yes"/>
      <point x="486" y="578"/>
      <point x="517" y="510"/>
      <point x="517" y="412" type="curve" smooth="yes"/>
      <point x="517" y="280" type="line" smooth="yes"/>
      <point x="517" y="183"/>
      <point x="478" y="128"/>
    </contour>
  </outline>
</glyph>
<glyph name="five.gm" format="2">
  <advance width="820"/>
  <unicode hex="0A6B"/>
  <outline>
    <contour>
      <point x="372" y="195" type="curve" smooth="yes"/>
      <point x="422" y="195"/>
      <point x="476" y="204"/>
      <point x="516" y="218" type="curve"/>
      <point x="558" y="353" type="line"/>
      <point x="577" y="353" type="line"/>
      <point x="569" y="397" type="line"/>
      <point x="536" y="365"/>
      <point x="480" y="342"/>
      <point x="414" y="342" type="curve" smooth="yes"/>
      <point x="339" y="342"/>
      <point x="280" y="375"/>
      <point x="251" y="423" type="curve"/>
      <point x="286" y="566"/>
      <point x="305" y="787"/>
      <point x="305" y="988" type="curve" smooth="yes"/>
      <point x="305" y="1076"/>
      <point x="302" y="1161"/>
      <point x="295" y="1238" type="curve"/>
      <point x="123" y="1238" type="line"/>
      <point x="129" y="1162"/>
      <point x="132" y="1079"/>
      <point x="132" y="991" type="curve" smooth="yes"/>
      <point x="132" y="731"/>
      <point x="109" y="542"/>
      <point x="66" y="382" type="curve"/>
      <point x="118" y="256"/>
      <point x="230" y="195"/>
    </contour>
    <contour>
      <point x="562" y="0" type="line"/>
      <point x="732" y="0" type="line"/>
      <point x="732" y="1238" type="line"/>
      <point x="562" y="1238" type="line"/>
    </contour>
  </outline>
</glyph>
<glyph name="six.gm" format="2">
  <advance width="679"/>
  <unicode hex="0A6C"/>
  <outline>
    <contour>
      <point x="392" y="-19" type="curve" smooth="yes"/>
      <point x="482" y="-19"/>
      <point x="560" y="5"/>
      <point x="609" y="41" type="curve"/>
      <point x="618" y="210" type="line"/>
      <point x="567" y="164"/>
      <point x="499" y="131"/>
      <point x="417" y="131" type="curve" smooth="yes"/>
      <point x="313" y="131"/>
      <point x="249" y="193"/>
      <point x="249" y="310" type="curve" smooth="yes"/>
      <point x="249" y="380" type="line" smooth="yes"/>
      <point x="249" y="482"/>
      <point x="298" y="548"/>
      <point x="402" y="548" type="curve" smooth="yes"/>
      <point x="550" y="548" type="line"/>
      <point x="550" y="693" type="line"/>
      <point x="413" y="693" type="line" smooth="yes"/>
      <point x="304" y="693"/>
      <point x="259" y="758"/>
      <point x="259" y="859" type="curve" smooth="yes"/>
      <point x="259" y="907" type="line" smooth="yes"/>
      <point x="259" y="1022"/>
      <point x="312" y="1083"/>
      <point x="407" y="1083" type="curve" smooth="yes"/>
      <point x="470" y="1083"/>
      <point x="534" y="1059"/>
      <point x="587" y="1014" type="curve"/>
      <point x="587" y="1161" type="line"/>
      <point x="529" y="1207"/>
      <point x="470" y="1232"/>
      <point x="377" y="1232" type="curve" smooth="yes"/>
      <point x="194" y="1232"/>
      <point x="86" y="1125"/>
      <point x="86" y="933" type="curve" smooth="yes"/>
      <point x="86" y="883" type="line" smooth="yes"/>
      <point x="86" y="724"/>
      <point x="155" y="634"/>
      <point x="271" y="625" type="curve"/>
      <point x="271" y="561" type="line"/>
      <point x="304" y="624" type="line"/>
      <point x="155" y="616"/>
      <point x="77" y="528"/>
      <point x="77" y="365" type="curve" smooth="yes"/>
      <point x="77" y="290" type="line" smooth="yes"/>
      <point x="77" y="78"/>
      <point x="201" y="-19"/>
    </contour>
    <contour>
      <point x="606" y="1417" type="curve"/>
      <point x="597" y="1560" type="line"/>
      <point x="579" y="1562"/>
      <point x="557" y="1563"/>
      <point x="537" y="1563" type="curve" smooth="yes"/>
      <point x="398" y="1563"/>
      <point x="314" y="1495"/>
      <point x="314" y="1386" type="curve" smooth="yes"/>
      <point x="314" y="1321"/>
      <point x="346" y="1267"/>
      <point x="413" y="1235" type="curve"/>
      <point x="413" y="1179" type="line"/>
      <point x="539" y="1193" type="line"/>
      <point x="481" y="1225"/>
      <point x="448" y="1267"/>
      <point x="448" y="1322" type="curve" smooth="yes"/>
      <point x="448" y="1382"/>
      <point x="486" y="1420"/>
      <point x="557" y="1420" type="curve" smooth="yes"/>
      <point x="570" y="1420"/>
      <point x="588" y="1419"/>
    </contour>
  </outline>
</glyph>
<glyph name="seven.gm" format="2">
  <advance width="754"/>
  <unicode hex="0A6D"/>
  <outline>
    <contour>
      <point x="92" y="0" type="line"/>
      <point x="98" y="0" type="line" smooth="yes"/>
      <point x="469" y="0"/>
      <point x="666" y="168"/>
      <point x="666" y="536" type="curve" smooth="yes"/>
      <point x="666" y="902" type="line" smooth="yes"/>
      <point x="666" y="1140"/>
      <point x="567" y="1260"/>
      <point x="372" y="1260" type="curve" smooth="yes"/>
      <point x="174" y="1260"/>
      <point x="75" y="1140"/>
      <point x="75" y="902" type="curve" smooth="yes"/>
      <point x="75" y="641" type="line"/>
      <point x="246" y="641" type="line"/>
      <point x="246" y="915" type="line" smooth="yes"/>
      <point x="246" y="1049"/>
      <point x="282" y="1109"/>
      <point x="372" y="1109" type="curve" smooth="yes"/>
      <point x="460" y="1109"/>
      <point x="495" y="1049"/>
      <point x="495" y="915" type="curve" smooth="yes"/>
      <point x="495" y="534" type="line" smooth="yes"/>
      <point x="495" y="261"/>
      <point x="372" y="153"/>
      <point x="88" y="153" type="curve" smooth="yes"/>
      <point x="80" y="153" type="line"/>
    </contour>
  </outline>
</glyph>
<glyph name="eight.gm" format="2">
  <advance width="688"/>
  <unicode hex="0A6E"/>
  <outline>
    <contour>
      <point x="429" y="-19" type="curve" smooth="yes"/>
      <point x="518" y="-19"/>
      <point x="602" y="15"/>
      <point x="632" y="44" type="curve"/>
      <point x="641" y="204" type="line"/>
      <point x="600" y="164"/>
      <point x="536" y="131"/>
      <point x="457" y="131" type="curve" smooth="yes"/>
      <point x="329" y="131"/>
      <point x="261" y="204"/>
      <point x="261" y="373" type="curve" smooth="yes"/>
      <point x="261" y="1243" type="line"/>
      <point x="88" y="1213" type="line"/>
      <point x="88" y="376" type="line" smooth="yes"/>
      <point x="88" y="108"/>
      <point x="204" y="-19"/>
    </contour>
    <contour>
      <point x="175" y="859" type="line"/>
      <point x="616" y="859" type="line"/>
      <point x="616" y="1002" type="line"/>
      <point x="175" y="1002" type="line"/>
    </contour>
  </outline>
</glyph>
<glyph name="nine.gm" format="2">
  <advance width="688"/>
  <unicode hex="0A6F"/>
  <outline>
    <contour>
      <point x="429" y="-19" type="curve" smooth="yes"/>
      <point x="518" y="-19"/>
      <point x="602" y="15"/>
      <point x="632" y="44" type="curve"/>
      <point x="641" y="204" type="line"/>
      <point x="600" y="164"/>
      <point x="536" y="131"/>
      <point x="457" y="131" type="curve" smooth="yes"/>
      <point x="329" y="131"/>
      <point x="261" y="204"/>
      <point x="261" y="373" type="curve" smooth="yes"/>
      <point x="261" y="1243" type="line"/>
      <point x="88" y="1213" type="line"/>
      <point x="88" y="376" type="line" smooth="yes"/>
      <point x="88" y="108"/>
      <point x="204" y="-19"/>
    </contour>
    <contour>
      <point x="175" y="859" type="line"/>
      <point x="616" y="859" type="line"/>
      <point x="616" y="1002" type="line"/>
      <point x="175" y="1002" type="line"/>
    </contour>
    <contour>
      <point x="502" y="947" type="line"/>
      <point x="616" y="1002" type="line"/>
      <point x="551" y="1028"/>
      <point x="506" y="1078"/>
      <point x="506" y="1142" type="curve" smooth="yes"/>
      <point x="506" y="1206"/>
      <point x="545" y="1243"/>
      <point x="619" y="1243" type="curve"/>
      <point x="635" y="1243"/>
      <point x="650" y="1243"/>
      <point x="666" y="1240" type="curve"/>
      <point x="656" y="1385" type="line"/>
      <point x="636" y="1388"/>
      <point x="616" y="1389"/>
      <point x="596" y="1389" type="curve"/>
      <point x="456" y="1389"/>
      <point x="374" y="1319"/>
      <point x="374" y="1194" type="curve" smooth="yes"/>
      <point x="374" y="1113"/>
      <point x="409" y="1045"/>
      <point x="502" y="1007" type="curve"/>
    </contour>
  </outline>
</glyph>
<glyph name="Ura.gm" format="2">
  <advance width="829"/>
  <unicode hex="0A73"/>
  <anchor x="1127" y="1361" name="top1"/>
  <outline>
    <contour>
      <point x="435" y="-21" type="curve" smooth="yes"/>
      <point x="645" y="-21"/>
      <point x="740" y="105"/>
      <point x="740" y="306" type="curve" smooth="yes"/>
      <point x="740" y="377" type="line" smooth="yes"/>
      <point x="740" y="518"/>
      <point x="686" y="654"/>
      <point x="444" y="653" type="curve"/>
      <point x="508" y="584" type="line"/>
      <point x="508" y="652" type="line"/>
      <point x="681" y="652"/>
      <point x="748" y="787"/>
      <point x="748" y="957" type="curve" smooth="yes"/>
      <point x="748" y="1178" type="line"/>
      <point x="578" y="1178" type="line"/>
      <point x="578" y="939" type="line" smooth="yes"/>
      <point x="578" y="781"/>
      <point x="512" y="714"/>
      <point x="386" y="714" type="curve" smooth="yes"/>
      <point x="202" y="714" type="line"/>
      <point x="202" y="568" type="line"/>
      <point x="407" y="568" type="line"/>
      <point x="516" y="568"/>
      <point x="566" y="504"/>
      <point x="566" y="389" type="curve" smooth="yes"/>
      <point x="566" y="311" type="line" smooth="yes"/>
      <point x="566" y="191"/>
      <point x="528" y="124"/>
      <point x="430" y="124" type="curve" smooth="yes"/>
      <point x="313" y="124"/>
      <point x="276" y="227"/>
      <point x="276" y="379" type="curve"/>
      <point x="276" y="1343" type="line" smooth="yes"/>
      <point x="276" y="1492"/>
      <point x="321" y="1563"/>
      <point x="428" y="1563" type="curve" smooth="yes"/>
      <point x="536" y="1563"/>
      <point x="578" y="1493"/>
      <point x="578" y="1343" type="curve" smooth="yes"/>
      <point x="578" y="1223" type="line"/>
      <point x="621" y="1234" type="line"/>
      <point x="622" y="1240" type="line"/>
      <point x="748" y="1277" type="line"/>
      <point x="748" y="1353" type="line" smooth="yes"/>
      <point x="748" y="1594"/>
      <point x="632" y="1706"/>
      <point x="428" y="1706" type="curve" smooth="yes"/>
      <point x="213" y="1706"/>
      <point x="106" y="1575"/>
      <point x="106" y="1324" type="curve"/>
      <point x="106" y="382" type="line"/>
      <point x="106" y="130"/>
      <point x="208" y="-21"/>
    </contour>
    <contour>
      <point x="43" y="1104" type="line"/>
      <point x="181" y="1104" type="line"/>
      <point x="192" y="1104" type="line"/>
      <point x="656" y="1104" type="line"/>
      <point x="671" y="1104" type="line"/>
      <point x="809" y="1104" type="line"/>
      <point x="809" y="1238" type="line"/>
      <point x="43" y="1238" type="line"/>
    </contour>
    <component base="_cap.shiro_left"/>
    <component base="_cap.shiro_right" xOffset="567"/>
  </outline>
</glyph>
<glyph name="EkOnkar.gm" format="2">
  <advance width="1531"/>
  <unicode hex="0A74"/>
  <outline>
    <contour>
      <point x="1125" y="-20" type="curve" smooth="yes"/>
      <point x="1336" y="-20"/>
      <point x="1430" y="106"/>
      <point x="1430" y="307" type="curve" smooth="yes"/>
      <point x="1430" y="378" type="line" smooth="yes"/>
      <point x="1430" y="519"/>
      <point x="1391" y="633"/>
      <point x="1174" y="653" type="curve"/>
      <point x="1219" y="585" type="line"/>
      <point x="1219" y="650" type="line"/>
      <point x="1367" y="660"/>
      <point x="1439" y="788"/>
      <point x="1439" y="958" type="curve" smooth="yes"/>
      <point x="1439" y="1147" type="line"/>
      <point x="1269" y="1147" type="line"/>
      <point x="1269" y="940" type="line" smooth="yes"/>
      <point x="1269" y="782"/>
      <point x="1202" y="715"/>
      <point x="1076" y="715" type="curve" smooth="yes"/>
      <point x="888" y="715" type="line"/>
      <point x="888" y="569" type="line"/>
      <point x="1098" y="569" type="line"/>
      <point x="1206" y="569"/>
      <point x="1256" y="505"/>
      <point x="1256" y="390" type="curve" smooth="yes"/>
      <point x="1256" y="312" type="line" smooth="yes"/>
      <point x="1256" y="192"/>
      <point x="1218" y="125"/>
      <point x="1121" y="125" type="curve" smooth="yes"/>
      <point x="1003" y="125"/>
      <point x="967" y="228"/>
      <point x="967" y="380" type="curve" smooth="yes"/>
      <point x="967" y="1244" type="line" smooth="yes"/>
      <point x="967" y="1459"/>
      <point x="1054" y="1552"/>
      <point x="1221" y="1552" type="curve" smooth="yes"/>
      <point x="1271" y="1552"/>
      <point x="1319" y="1547"/>
      <point x="1375" y="1533" type="curve"/>
      <point x="1365" y="1676" type="line"/>
      <point x="1319" y="1688"/>
      <point x="1264" y="1697"/>
      <point x="1205" y="1697" type="curve" smooth="yes"/>
      <point x="940" y="1697"/>
      <point x="796" y="1555"/>
      <point x="796" y="1250" type="curve" smooth="yes"/>
      <point x="796" y="383" type="line" smooth="yes"/>
      <point x="796" y="131"/>
      <point x="899" y="-20"/>
    </contour>
    <contour>
      <point x="880" y="1104" type="line"/>
      <point x="889" y="1104" type="line"/>
      <point x="900" y="1104" type="line"/>
      <point x="1356" y="1104" type="line"/>
      <point x="1366" y="1104" type="line"/>
      <point x="1501" y="1104" type="line"/>
      <point x="1501" y="1238" type="line"/>
      <point x="885" y="1238" type="line"/>
    </contour>
    <contour>
      <point x="1375" y="1533" type="line"/>
      <point x="1375" y="1589" type="line" smooth="yes"/>
      <point x="1375" y="1748"/>
      <point x="1455" y="1842"/>
      <point x="1609" y="1842" type="curve" smooth="yes"/>
      <point x="1653" y="1842"/>
      <point x="1701" y="1835"/>
      <point x="1743" y="1823" type="curve"/>
      <point x="1733" y="1965" type="line"/>
      <point x="1693" y="1977"/>
      <point x="1642" y="1986"/>
      <point x="1588" y="1986" type="curve" smooth="yes"/>
      <point x="1339" y="1986"/>
      <point x="1204" y="1844"/>
      <point x="1204" y="1594" type="curve"/>
      <point x="1204" y="1581" type="line"/>
    </contour>
    <component base="one.gm"/>
    <component base="_cap.shiro_right" xOffset="1268"/>
  </outline>
</glyph>
<glyph name="Yakash.gm" format="2">
  <unicode hex="0A75"/>
  <anchor x="600" y="100" name="_bottom"/>
  <anchor x="600" y="287" name="bottom1"/>
  <outline>
    <contour>
      <point x="463" y="-428" type="curve" smooth="yes"/>
      <point x="624" y="-428"/>
      <point x="694" y="-334"/>
      <point x="694" y="-175" type="curve"/>
      <point x="555" y="-175" type="line"/>
      <point x="555" y="-254"/>
      <point x="529" y="-295"/>
      <point x="473" y="-295" type="curve" smooth="yes"/>
      <point x="413" y="-295"/>
      <point x="388" y="-256"/>
      <point x="388" y="-180" type="curve" smooth="yes"/>
      <point x="388" y="18" type="line"/>
      <point x="219" y="18" type="line"/>
      <point x="219" y="-180" type="line" smooth="yes"/>
      <point x="219" y="-336"/>
      <point x="290" y="-428"/>
    </contour>
  </outline>
</glyph>
<glyph name="Khanda.gm" format="2">
  <advance width="1739"/>
  <unicode hex="262C"/>
  <outline>
    <contour>
      <point x="784" y="1" type="line"/>
      <point x="954" y="1" type="line"/>
      <point x="909" y="194" type="line"/>
      <point x="1082" y="56" type="line"/>
      <point x="1192" y="150" type="line"/>
      <point x="948" y="251" type="line"/>
      <point x="1161" y="251"/>
      <point x="1555" y="418"/>
      <point x="1555" y="807" type="curve" smooth="yes"/>
      <point x="1555" y="1014"/>
      <point x="1431" y="1160"/>
      <point x="1259" y="1174" type="curve"/>
      <point x="1314" y="1106"/>
      <point x="1357" y="1010"/>
      <point x="1357" y="859" type="curve" smooth="yes"/>
      <point x="1357" y="486"/>
      <point x="1078" y="352"/>
      <point x="905" y="335" type="curve"/>
      <point x="905" y="396" type="line"/>
      <point x="1018" y="465" type="line"/>
      <point x="971" y="594"/>
      <point x="950" y="727"/>
      <point x="950" y="859" type="curve" smooth="yes"/>
      <point x="950" y="999"/>
      <point x="975" y="1140"/>
      <point x="1025" y="1276" type="curve"/>
      <point x="876" y="1422" type="line"/>
      <point x="720" y="1276" type="line"/>
      <point x="772" y="1140"/>
      <point x="801" y="998"/>
      <point x="801" y="856" type="curve" smooth="yes"/>
      <point x="801" y="724"/>
      <point x="779" y="592"/>
      <point x="731" y="465" type="curve"/>
      <point x="831" y="401" type="line"/>
      <point x="831" y="335" type="line"/>
      <point x="657" y="352"/>
      <point x="382" y="486"/>
      <point x="382" y="859" type="curve" smooth="yes"/>
      <point x="382" y="1010"/>
      <point x="426" y="1106"/>
      <point x="481" y="1174" type="curve"/>
      <point x="308" y="1160"/>
      <point x="184" y="1014"/>
      <point x="184" y="807" type="curve" smooth="yes"/>
      <point x="184" y="418"/>
      <point x="574" y="251"/>
      <point x="788" y="251" type="curve"/>
      <point x="546" y="150" type="line"/>
      <point x="655" y="56" type="line"/>
      <point x="827" y="194" type="line"/>
    </contour>
    <contour>
      <point x="874" y="524" type="curve" smooth="yes"/>
      <point x="1106" y="524"/>
      <point x="1255" y="658"/>
      <point x="1255" y="874" type="curve" smooth="yes"/>
      <point x="1255" y="1092"/>
      <point x="1106" y="1224"/>
      <point x="874" y="1224" type="curve" smooth="yes"/>
      <point x="640" y="1224"/>
      <point x="492" y="1092"/>
      <point x="492" y="874" type="curve" smooth="yes"/>
      <point x="492" y="658"/>
      <point x="640" y="524"/>
    </contour>
    <contour>
      <point x="874" y="567" type="curve" smooth="yes"/>
      <point x="712" y="567"/>
      <point x="639" y="675"/>
      <point x="639" y="874" type="curve" smooth="yes"/>
      <point x="639" y="1073"/>
      <point x="712" y="1180"/>
      <point x="874" y="1180" type="curve" smooth="yes"/>
      <point x="1034" y="1180"/>
      <point x="1108" y="1073"/>
      <point x="1108" y="874" type="curve" smooth="yes"/>
      <point x="1108" y="675"/>
      <point x="1034" y="567"/>
    </contour>
  </outline>
</glyph>
<glyph name="Addak.gm.alt" format="2">
  <anchor x="400" y="1200" name="_top1"/>
  <outline>
    <contour>
      <point x="143" y="1367" type="curve" smooth="yes"/>
      <point x="247" y="1367"/>
      <point x="302" y="1440"/>
      <point x="290" y="1585" type="curve"/>
      <point x="218" y="1585" type="line"/>
      <point x="216" y="1514"/>
      <point x="192" y="1476"/>
      <point x="141" y="1476" type="curve" smooth="yes"/>
      <point x="90" y="1476"/>
      <point x="63" y="1514"/>
      <point x="62" y="1585" type="curve"/>
      <point x="-10" y="1585" type="line"/>
      <point x="-22" y="1440"/>
      <point x="32" y="1367"/>
    </contour>
  </outline>
</glyph>
<glyph name="AddakBindi.gm.alt" format="2">
  <anchor x="400" y="1200" name="_top1"/>
  <outline>
    <contour>
      <point x="140" y="1389" type="curve" smooth="yes"/>
      <point x="243" y="1389"/>
      <point x="292" y="1457"/>
      <point x="277" y="1580" type="curve"/>
      <point x="217" y="1580" type="line"/>
      <point x="216" y="1519"/>
      <point x="189" y="1489"/>
      <point x="138" y="1489" type="curve" smooth="yes"/>
      <point x="86" y="1489"/>
      <point x="60" y="1519"/>
      <point x="59" y="1580" type="curve"/>
      <point x="-1" y="1580" type="line"/>
      <point x="-15" y="1457"/>
      <point x="34" y="1389"/>
    </contour>
    <contour>
      <point x="138" y="1530" type="curve" smooth="yes"/>
      <point x="171" y="1530"/>
      <point x="186" y="1551"/>
      <point x="186" y="1586" type="curve" smooth="yes"/>
      <point x="186" y="1592" type="line" smooth="yes"/>
      <point x="186" y="1628"/>
      <point x="171" y="1648"/>
      <point x="138" y="1648" type="curve" smooth="yes"/>
      <point x="104" y="1648"/>
      <point x="90" y="1628"/>
      <point x="90" y="1592" type="curve" smooth="yes"/>
      <point x="90" y="1586" type="line" smooth="yes"/>
      <point x="90" y="1551"/>
      <point x="104" y="1530"/>
    </contour>
  </outline>
</glyph>
<glyph name="AddakBindiDist.gm" format="2">
  <anchor x="280" y="1200" name="_top"/>
  <outline>
    <contour>
      <point x="303.654" y="1550.987" type="curve" smooth="yes"/>
      <point x="350.327" y="1550.987"/>
      <point x="371.921" y="1579.548"/>
      <point x="371.921" y="1629.703" type="curve" smooth="yes"/>
      <point x="371.921" y="1638.759" type="line" smooth="yes"/>
      <point x="371.921" y="1688.915"/>
      <point x="350.327" y="1716.779"/>
      <point x="303.654" y="1716.779" type="curve" smooth="yes"/>
      <point x="256.285" y="1716.779"/>
      <point x="235.387" y="1688.915"/>
      <point x="235.387" y="1638.759" type="curve" smooth="yes"/>
      <point x="235.387" y="1629.703" type="line" smooth="yes"/>
      <point x="235.387" y="1579.548"/>
      <point x="256.285" y="1550.987"/>
    </contour>
    <contour>
      <point x="307" y="1354" type="curve" smooth="yes"/>
      <point x="455" y="1354"/>
      <point x="529" y="1450"/>
      <point x="517" y="1646" type="curve"/>
      <point x="416" y="1646" type="line"/>
      <point x="413" y="1550"/>
      <point x="375" y="1501"/>
      <point x="304" y="1501" type="curve" smooth="yes"/>
      <point x="232" y="1501"/>
      <point x="193" y="1550"/>
      <point x="191" y="1646" type="curve"/>
      <point x="90" y="1646" type="line"/>
      <point x="78" y="1450"/>
      <point x="153" y="1354"/>
    </contour>
  </outline>
</glyph>
<glyph name="AddhaMa.gm" format="2">
  <advance width="809"/>
  <anchor x="815" y="100" name="bottom1"/>
  <anchor x="729" y="1200" name="top"/>
  <outline>
    <contour>
      <point x="33" y="454" type="line"/>
      <point x="570" y="454" type="line"/>
      <point x="570" y="599" type="line"/>
      <point x="33" y="599" type="line"/>
    </contour>
    <component base="_danda" xOffset="343"/>
  </outline>
</glyph>
<glyph name="AddhaTha.gm" format="2">
  <advance width="804"/>
  <anchor x="815" y="100" name="bottom1"/>
  <anchor x="724" y="1200" name="top"/>
  <outline>
    <contour>
      <point x="285" y="220" type="curve" smooth="yes"/>
      <point x="373" y="220"/>
      <point x="467" y="239"/>
      <point x="534" y="275" type="curve"/>
      <point x="534" y="421" type="line"/>
      <point x="467" y="385"/>
      <point x="373" y="366"/>
      <point x="285" y="366" type="curve" smooth="yes"/>
      <point x="196" y="366"/>
      <point x="99" y="386"/>
      <point x="28" y="422" type="curve"/>
      <point x="28" y="273" type="line"/>
      <point x="100" y="238"/>
      <point x="196" y="220"/>
    </contour>
    <contour>
      <point x="28" y="1104" type="line"/>
      <point x="725" y="1104" type="line"/>
      <point x="725" y="1238" type="line"/>
      <point x="28" y="1238" type="line"/>
    </contour>
    <component base="_danda" xOffset="338"/>
    <component base="_cap.shiro_left"/>
  </outline>
</glyph>
<glyph name="AddhaYa.gm" format="2">
  <advance width="940"/>
  <anchor x="890" y="100" name="bottom1"/>
  <anchor x="860" y="1200" name="top"/>
  <outline>
    <contour>
      <point x="269" y="169" type="curve" smooth="yes"/>
      <point x="356" y="169"/>
      <point x="443" y="188"/>
      <point x="489" y="216" type="curve"/>
      <point x="489" y="653" type="line"/>
      <point x="709" y="653" type="line"/>
      <point x="709" y="803" type="line"/>
      <point x="325" y="803" type="line"/>
      <point x="325" y="280" type="line"/>
      <point x="364" y="338" type="line"/>
      <point x="341" y="323"/>
      <point x="292" y="315"/>
      <point x="245" y="315" type="curve" smooth="yes"/>
      <point x="179" y="315"/>
      <point x="102" y="329"/>
      <point x="46" y="364" type="curve"/>
      <point x="46" y="214" type="line"/>
      <point x="110" y="183"/>
      <point x="194" y="169"/>
    </contour>
    <contour>
      <point x="20" y="1104" type="line"/>
      <point x="836" y="1104" type="line"/>
      <point x="836" y="1238" type="line"/>
      <point x="20" y="1238" type="line"/>
    </contour>
    <component base="_danda" xOffset="474"/>
    <component base="_cap.shiro_left"/>
  </outline>
</glyph>
<glyph name="Bindi.gm.alt" format="2">
  <anchor x="400" y="1200" name="_top1"/>
  <outline>
    <contour>
      <point x="80" y="1417" type="curve" smooth="yes"/>
      <point x="135" y="1417"/>
      <point x="160" y="1450"/>
      <point x="160" y="1509" type="curve" smooth="yes"/>
      <point x="160" y="1520" type="line" smooth="yes"/>
      <point x="160" y="1579"/>
      <point x="135" y="1612"/>
      <point x="80" y="1612" type="curve" smooth="yes"/>
      <point x="24" y="1612"/>
      <point x="-1" y="1579"/>
      <point x="-1" y="1520" type="curve" smooth="yes"/>
      <point x="-1" y="1509" type="line" smooth="yes"/>
      <point x="-1" y="1450"/>
      <point x="24" y="1417"/>
    </contour>
  </outline>
</glyph>
<glyph name="KaViramaRa.gm" format="2">
  <advance width="830"/>
  <anchor x="820" y="-175" name="bottom"/>
  <anchor x="904" y="-178" name="bottom1"/>
  <anchor x="785" y="1200" name="top"/>
  <outline>
    <contour>
      <point x="309" y="-277" type="line"/>
      <point x="655" y="-277" type="line"/>
      <point x="722" y="-187" type="line"/>
      <point x="741" y="-117"/>
      <point x="747" y="-37"/>
      <point x="747" y="38" type="curve"/>
      <point x="747" y="109" type="line"/>
      <point x="747" y="359"/>
      <point x="692" y="505"/>
      <point x="615" y="611" type="curve"/>
      <point x="563" y="682" type="line"/>
      <point x="525" y="801"/>
      <point x="465" y="919"/>
      <point x="319" y="919" type="curve" smooth="yes"/>
      <point x="160" y="919"/>
      <point x="71" y="808"/>
      <point x="71" y="610" type="curve" smooth="yes"/>
      <point x="71" y="523" type="line"/>
      <point x="71" y="329"/>
      <point x="165" y="221"/>
      <point x="331" y="221" type="curve" smooth="yes"/>
      <point x="458" y="221"/>
      <point x="533" y="342"/>
      <point x="572" y="466" type="curve"/>
      <point x="616" y="536" type="line"/>
      <point x="710" y="710"/>
      <point x="735" y="876"/>
      <point x="743" y="1029" type="curve" smooth="yes"/>
      <point x="751" y="1177" type="line"/>
      <point x="576" y="1175" type="line"/>
      <point x="570" y="1039" type="line" smooth="yes"/>
      <point x="563" y="882"/>
      <point x="543" y="790"/>
      <point x="505" y="669" type="curve"/>
      <point x="508" y="578" type="line"/>
      <point x="482" y="491"/>
      <point x="448" y="369"/>
      <point x="362" y="369" type="curve" smooth="yes"/>
      <point x="284" y="369"/>
      <point x="246" y="424"/>
      <point x="246" y="528" type="curve" smooth="yes"/>
      <point x="246" y="611" type="line" smooth="yes"/>
      <point x="246" y="716"/>
      <point x="284" y="771"/>
      <point x="362" y="771" type="curve" smooth="yes"/>
      <point x="446" y="771"/>
      <point x="485" y="659"/>
      <point x="508" y="571" type="curve"/>
      <point x="521" y="486" type="line"/>
      <point x="544" y="420"/>
      <point x="579" y="293"/>
      <point x="579" y="109" type="curve"/>
      <point x="579" y="42" type="line"/>
      <point x="579" y="-44"/>
      <point x="574" y="-113"/>
      <point x="568" y="-159" type="curve"/>
      <point x="597" y="-125" type="line"/>
      <point x="321" y="-125" type="line"/>
    </contour>
    <contour>
      <point x="945" y="-491" type="curve"/>
      <point x="935" y="-324" type="line"/>
      <point x="865" y="-264"/>
      <point x="725" y="-178"/>
      <point x="634" y="-140" type="curve"/>
      <point x="551" y="-240" type="line"/>
      <point x="663" y="-290"/>
      <point x="870" y="-424"/>
    </contour>
    <contour>
      <point x="19" y="1104" type="line"/>
      <point x="824" y="1104" type="line"/>
      <point x="824" y="1238" type="line"/>
      <point x="19" y="1238" type="line"/>
    </contour>
    <component base="_cap.shiro_left"/>
    <component base="_cap.shiro_right" xOffset="573"/>
  </outline>
</glyph>
<glyph name="LaHa.gm" format="2">
  <advance width="945"/>
  <anchor x="975" y="-443" name="bottom1"/>
  <anchor x="814" y="1200" name="top"/>
  <outline>
    <contour>
      <point x="477" y="407" type="curve"/>
      <point x="636" y="557"/>
      <point x="770" y="836"/>
      <point x="792" y="1147" type="curve"/>
      <point x="792" y="1158" type="line"/>
      <point x="621" y="1158" type="line"/>
      <point x="621" y="1127" type="line"/>
      <point x="601" y="938"/>
      <point x="560" y="748"/>
      <point x="477" y="612" type="curve"/>
      <point x="384" y="744"/>
      <point x="342" y="941"/>
      <point x="327" y="1127" type="curve"/>
      <point x="327" y="1158" type="line"/>
      <point x="157" y="1158" type="line"/>
      <point x="157" y="1147" type="line"/>
      <point x="173" y="831"/>
      <point x="307" y="557"/>
    </contour>
    <contour>
      <point x="177" y="0" type="curve"/>
      <point x="337" y="0" type="line"/>
      <point x="351" y="0" type="line"/>
      <point x="289" y="98"/>
      <point x="260" y="204"/>
      <point x="260" y="334" type="curve" smooth="yes"/>
      <point x="260" y="452" type="line" smooth="yes"/>
      <point x="260" y="551"/>
      <point x="283" y="622"/>
      <point x="328" y="674" type="curve"/>
      <point x="277" y="826" type="line"/>
      <point x="152" y="769"/>
      <point x="90" y="645"/>
      <point x="90" y="467" type="curve" smooth="yes"/>
      <point x="90" y="332" type="line" smooth="yes"/>
      <point x="90" y="176"/>
      <point x="118" y="86"/>
    </contour>
    <contour>
      <point x="768" y="0" type="line"/>
      <point x="827" y="84"/>
      <point x="855" y="180"/>
      <point x="855" y="324" type="curve" smooth="yes"/>
      <point x="855" y="466" type="line" smooth="yes"/>
      <point x="855" y="645"/>
      <point x="794" y="767"/>
      <point x="663" y="826" type="curve"/>
      <point x="612" y="674" type="line"/>
      <point x="660" y="622"/>
      <point x="685" y="549"/>
      <point x="685" y="452" type="curve" smooth="yes"/>
      <point x="685" y="334" type="line" smooth="yes"/>
      <point x="685" y="203"/>
      <point x="661" y="106"/>
      <point x="599" y="8" type="curve"/>
      <point x="599" y="0" type="line"/>
    </contour>
    <contour>
      <point x="28" y="1104" type="line"/>
      <point x="899" y="1104" type="line"/>
      <point x="899" y="1238" type="line"/>
      <point x="28" y="1238" type="line"/>
    </contour>
    <contour>
      <point x="538" y="-615" type="curve" smooth="yes"/>
      <point x="708" y="-615"/>
      <point x="768" y="-506"/>
      <point x="768" y="-386" type="curve" smooth="yes"/>
      <point x="768" y="0" type="line"/>
      <point x="599" y="0" type="line"/>
      <point x="599" y="-385" type="line" smooth="yes"/>
      <point x="599" y="-443"/>
      <point x="578" y="-476"/>
      <point x="532" y="-476" type="curve" smooth="yes"/>
      <point x="473" y="-476"/>
      <point x="444" y="-420"/>
      <point x="444" y="-331" type="curve" smooth="yes"/>
      <point x="444" y="-317" type="line" smooth="yes"/>
      <point x="444" y="-255"/>
      <point x="473" y="-222"/>
      <point x="530" y="-222" type="curve" smooth="yes"/>
      <point x="548" y="-222" type="line"/>
      <point x="548" y="-82" type="line"/>
      <point x="510" y="-82" type="line" smooth="yes"/>
      <point x="355" y="-82"/>
      <point x="282" y="-161"/>
      <point x="282" y="-309" type="curve" smooth="yes"/>
      <point x="282" y="-328" type="line" smooth="yes"/>
      <point x="282" y="-490"/>
      <point x="357" y="-615"/>
    </contour>
    <component base="_cap.shiro_left"/>
    <component base="_cap.shiro_right" xOffset="682"/>
  </outline>
</glyph>
<glyph name="MatraAi.gm.alt" format="2">
  <anchor x="400" y="1200" name="_top"/>
  <anchor x="748" y="1398" name="top1"/>
  <outline>
    <contour>
      <point x="304" y="1216" type="line"/>
      <point x="374" y="1216" type="line"/>
      <point x="368" y="1397" type="line" smooth="yes"/>
      <point x="358" y="1710"/>
      <point x="251" y="1797"/>
      <point x="44" y="1797" type="curve" smooth="yes"/>
      <point x="9" y="1797"/>
      <point x="-29" y="1793"/>
      <point x="-76" y="1784" type="curve"/>
      <point x="-86" y="1640" type="line"/>
      <point x="-41" y="1649"/>
      <point x="3" y="1654"/>
      <point x="40" y="1654" type="curve" smooth="yes"/>
      <point x="209" y="1654"/>
      <point x="277" y="1553"/>
      <point x="293" y="1373" type="curve"/>
      <point x="280" y="1370" type="line"/>
    </contour>
    <contour>
      <point x="266" y="1216" type="line"/>
      <point x="312" y="1216" type="line"/>
      <point x="308" y="1264" type="line" smooth="yes"/>
      <point x="293" y="1448"/>
      <point x="200" y="1535"/>
      <point x="62" y="1535" type="curve" smooth="yes"/>
      <point x="29" y="1535"/>
      <point x="-7" y="1531"/>
      <point x="-41" y="1525" type="curve"/>
      <point x="-50" y="1382" type="line"/>
      <point x="0" y="1389"/>
      <point x="23" y="1392"/>
      <point x="69" y="1392" type="curve" smooth="yes"/>
      <point x="190" y="1392"/>
      <point x="258" y="1344"/>
      <point x="265" y="1232" type="curve" smooth="yes"/>
    </contour>
  </outline>
</glyph>
<glyph name="MatraAu.gm.alt" format="2">
  <anchor x="400" y="1200" name="_top"/>
  <anchor x="836" y="1448" name="top1"/>
  <outline>
    <contour>
      <point x="179" y="1355" type="curve"/>
      <point x="275" y="1355" type="line"/>
      <point x="262" y="1384"/>
      <point x="252" y="1416"/>
      <point x="252" y="1454" type="curve" smooth="yes"/>
      <point x="252" y="1499"/>
      <point x="272" y="1532"/>
      <point x="316" y="1532" type="curve" smooth="yes"/>
      <point x="360" y="1532"/>
      <point x="380" y="1500"/>
      <point x="380" y="1454" type="curve" smooth="yes"/>
      <point x="380" y="1416"/>
      <point x="371" y="1384"/>
      <point x="358" y="1355" type="curve"/>
      <point x="453" y="1355" type="line"/>
      <point x="481" y="1396"/>
      <point x="497" y="1441"/>
      <point x="497" y="1495" type="curve" smooth="yes"/>
      <point x="497" y="1601"/>
      <point x="434" y="1678"/>
      <point x="317" y="1678" type="curve" smooth="yes"/>
      <point x="283" y="1678"/>
      <point x="243" y="1666"/>
      <point x="214" y="1632" type="curve"/>
      <point x="212" y="1613" type="line"/>
      <point x="162" y="1585"/>
      <point x="138" y="1536"/>
      <point x="138" y="1481" type="curve"/>
      <point x="138" y="1431"/>
      <point x="154" y="1394"/>
    </contour>
    <contour>
      <point x="90" y="1553" type="curve" smooth="yes"/>
      <point x="132" y="1553"/>
      <point x="155" y="1569"/>
      <point x="176" y="1590" type="curve"/>
      <point x="181" y="1585" type="line"/>
      <point x="314" y="1584" type="line"/>
      <point x="317" y="1678" type="line"/>
      <point x="187" y="1677" type="line" smooth="yes"/>
      <point x="89" y="1676"/>
      <point x="56" y="1699"/>
      <point x="50" y="1803" type="curve"/>
      <point x="-52" y="1803" type="line"/>
      <point x="-49" y="1717" type="line" smooth="yes"/>
      <point x="-45" y="1596"/>
      <point x="7" y="1553"/>
    </contour>
  </outline>
</glyph>
<glyph name="MatraEe.gm.alt" format="2">
  <anchor x="400" y="1200" name="_top"/>
  <anchor x="709" y="1363" name="top1"/>
  <outline>
    <contour>
      <point x="282" y="1215" type="line"/>
      <point x="373" y="1215" type="line"/>
      <point x="343" y="1603"/>
      <point x="254" y="1700"/>
      <point x="57" y="1700" type="curve" smooth="yes"/>
      <point x="29" y="1700"/>
      <point x="3" y="1696"/>
      <point x="-26" y="1691" type="curve"/>
      <point x="-33" y="1539" type="line"/>
      <point x="4" y="1546"/>
      <point x="31" y="1548"/>
      <point x="65" y="1548" type="curve" smooth="yes"/>
      <point x="186" y="1548"/>
      <point x="234" y="1477"/>
      <point x="280" y="1226" type="curve" smooth="yes"/>
    </contour>
  </outline>
</glyph>
<glyph name="MatraEeTa.gm" format="2">
  <anchor x="400" y="1200" name="_top"/>
  <anchor x="689" y="1363" name="top1"/>
  <outline>
    <contour>
      <point x="285" y="1215" type="line"/>
      <point x="376" y="1215" type="line"/>
      <point x="346" y="1603"/>
      <point x="257" y="1700"/>
      <point x="60" y="1700" type="curve" smooth="yes"/>
      <point x="32" y="1700"/>
      <point x="6" y="1696"/>
      <point x="-23" y="1691" type="curve"/>
      <point x="-30" y="1539" type="line"/>
      <point x="7" y="1546"/>
      <point x="34" y="1548"/>
      <point x="68" y="1548" type="curve" smooth="yes"/>
      <point x="189" y="1548"/>
      <point x="237" y="1477"/>
      <point x="283" y="1226" type="curve" smooth="yes"/>
    </contour>
  </outline>
</glyph>
<glyph name="MatraIiBindi.gm" format="2">
  <advance width="393"/>
  <anchor x="669" y="1363" name="top1"/>
  <outline>
    <contour>
      <point x="369" y="1580" type="curve" smooth="yes"/>
      <point x="424" y="1580"/>
      <point x="449" y="1613"/>
      <point x="449" y="1672" type="curve" smooth="yes"/>
      <point x="449" y="1683" type="line" smooth="yes"/>
      <point x="449" y="1742"/>
      <point x="424" y="1775"/>
      <point x="369" y="1775" type="curve" smooth="yes"/>
      <point x="313" y="1775"/>
      <point x="288" y="1742"/>
      <point x="288" y="1683" type="curve" smooth="yes"/>
      <point x="288" y="1672" type="line" smooth="yes"/>
      <point x="288" y="1613"/>
      <point x="313" y="1580"/>
    </contour>
    <component base="MatraIi.gm"/>
  </outline>
</glyph>
<glyph name="MatraOo.gm.alt" format="2">
  <anchor x="400" y="1200" name="_top"/>
  <anchor x="704" y="1372" name="top1"/>
  <outline>
    <contour>
      <point x="276" y="1233" type="curve"/>
      <point x="377" y="1233" type="line"/>
      <point x="381" y="1270"/>
      <point x="383" y="1300"/>
      <point x="383" y="1321" type="curve" smooth="yes"/>
      <point x="383" y="1483"/>
      <point x="325" y="1553"/>
      <point x="180" y="1576" type="curve" smooth="yes"/>
      <point x="155" y="1580" type="line" smooth="yes"/>
      <point x="70" y="1594"/>
      <point x="37" y="1638"/>
      <point x="31" y="1762" type="curve"/>
      <point x="-70" y="1762" type="line"/>
      <point x="-70" y="1666" type="line" smooth="yes"/>
      <point x="-70" y="1508"/>
      <point x="2" y="1448"/>
      <point x="138" y="1425" type="curve" smooth="yes"/>
      <point x="167" y="1420" type="line" smooth="yes"/>
      <point x="243" y="1407"/>
      <point x="273" y="1363"/>
    </contour>
  </outline>
</glyph>
<glyph name="MatraU.gm.alt" format="2">
  <anchor x="600" y="100" name="_bottom1"/>
  <outline>
    <contour>
      <point x="152" y="-845" type="curve" smooth="yes"/>
      <point x="225" y="-845"/>
      <point x="299" y="-830"/>
      <point x="342" y="-811" type="curve"/>
      <point x="347" y="-696" type="line"/>
      <point x="302" y="-714"/>
      <point x="229" y="-730"/>
      <point x="156" y="-730" type="curve" smooth="yes"/>
      <point x="79" y="-730"/>
      <point x="5" y="-714"/>
      <point x="-39" y="-696" type="curve"/>
      <point x="-35" y="-811" type="line"/>
      <point x="10" y="-830"/>
      <point x="78" y="-845"/>
    </contour>
  </outline>
</glyph>
<glyph name="MatraUu.gm.alt" format="2">
  <anchor x="600" y="100" name="_bottom1"/>
  <outline>
    <contour>
      <point x="147" y="-796" type="curve" smooth="yes"/>
      <point x="220" y="-796"/>
      <point x="285" y="-784"/>
      <point x="337" y="-761" type="curve"/>
      <point x="342" y="-653" type="line"/>
      <point x="283" y="-675"/>
      <point x="217" y="-687"/>
      <point x="151" y="-687" type="curve" smooth="yes"/>
      <point x="77" y="-687"/>
      <point x="11" y="-675"/>
      <point x="-44" y="-653" type="curve"/>
      <point x="-40" y="-761" type="line"/>
      <point x="14" y="-784"/>
      <point x="79" y="-796"/>
    </contour>
    <contour>
      <point x="147" y="-962" type="curve" smooth="yes"/>
      <point x="220" y="-962"/>
      <point x="285" y="-951"/>
      <point x="337" y="-929" type="curve"/>
      <point x="342" y="-820" type="line"/>
      <point x="283" y="-842"/>
      <point x="217" y="-854"/>
      <point x="151" y="-854" type="curve" smooth="yes"/>
      <point x="77" y="-854"/>
      <point x="11" y="-842"/>
      <point x="-44" y="-820" type="curve"/>
      <point x="-40" y="-929" type="line"/>
      <point x="11" y="-951"/>
      <point x="75" y="-962"/>
    </contour>
  </outline>
</glyph>
<glyph name="NaHa.gm" format="2">
  <advance width="823"/>
  <anchor x="864" y="-443" name="bottom1"/>
  <anchor x="518" y="1200" name="top"/>
  <outline>
    <contour>
      <point x="164" y="0" type="curve"/>
      <point x="334" y="0" type="line"/>
      <point x="329" y="7" type="line"/>
      <point x="271" y="101"/>
      <point x="256" y="191"/>
      <point x="256" y="311" type="curve" smooth="yes"/>
      <point x="256" y="481" type="line" smooth="yes"/>
      <point x="256" y="629"/>
      <point x="312" y="690"/>
      <point x="411" y="737" type="curve"/>
      <point x="508" y="691"/>
      <point x="565" y="629"/>
      <point x="565" y="481" type="curve" smooth="yes"/>
      <point x="565" y="311" type="line" smooth="yes"/>
      <point x="565" y="190"/>
      <point x="548" y="105"/>
      <point x="493" y="8" type="curve"/>
      <point x="488" y="0" type="line"/>
      <point x="657" y="0" type="line"/>
      <point x="708" y="76"/>
      <point x="735" y="169"/>
      <point x="735" y="313" type="curve" smooth="yes"/>
      <point x="735" y="484" type="line" smooth="yes"/>
      <point x="735" y="716"/>
      <point x="616" y="838"/>
      <point x="411" y="882" type="curve"/>
      <point x="208" y="839"/>
      <point x="86" y="716"/>
      <point x="86" y="484" type="curve" smooth="yes"/>
      <point x="86" y="313" type="line" smooth="yes"/>
      <point x="86" y="169"/>
      <point x="113" y="76"/>
    </contour>
    <contour>
      <point x="325" y="795" type="line"/>
      <point x="496" y="795" type="line"/>
      <point x="496" y="1167" type="line"/>
      <point x="325" y="1167" type="line"/>
    </contour>
    <contour>
      <point x="34" y="1104" type="line"/>
      <point x="786" y="1104" type="line"/>
      <point x="786" y="1238" type="line"/>
      <point x="34" y="1238" type="line"/>
    </contour>
    <contour>
      <point x="427" y="-615" type="curve" smooth="yes"/>
      <point x="597" y="-615"/>
      <point x="657" y="-506"/>
      <point x="657" y="-386" type="curve" smooth="yes"/>
      <point x="657" y="0" type="line"/>
      <point x="488" y="0" type="line"/>
      <point x="488" y="-385" type="line" smooth="yes"/>
      <point x="488" y="-443"/>
      <point x="467" y="-476"/>
      <point x="421" y="-476" type="curve" smooth="yes"/>
      <point x="362" y="-476"/>
      <point x="333" y="-420"/>
      <point x="333" y="-331" type="curve" smooth="yes"/>
      <point x="333" y="-317" type="line" smooth="yes"/>
      <point x="333" y="-255"/>
      <point x="362" y="-222"/>
      <point x="419" y="-222" type="curve" smooth="yes"/>
      <point x="437" y="-222" type="line"/>
      <point x="437" y="-82" type="line"/>
      <point x="399" y="-82" type="line" smooth="yes"/>
      <point x="244" y="-82"/>
      <point x="171" y="-161"/>
      <point x="171" y="-309" type="curve" smooth="yes"/>
      <point x="171" y="-328" type="line" smooth="yes"/>
      <point x="171" y="-490"/>
      <point x="246" y="-615"/>
    </contour>
    <component base="_cap.shiro_left"/>
    <component base="_cap.shiro_right" xOffset="560"/>
  </outline>
</glyph>
<glyph name="NaViramaRa.gm" format="2">
  <advance width="823"/>
  <anchor x="731" y="-210" name="bottom"/>
  <anchor x="815" y="-213" name="bottom1"/>
  <anchor x="518" y="1200" name="top"/>
  <outline>
    <contour>
      <point x="164" y="0" type="curve"/>
      <point x="337" y="0" type="line"/>
      <point x="332" y="7" type="line"/>
      <point x="272" y="101"/>
      <point x="256" y="191"/>
      <point x="256" y="311" type="curve" smooth="yes"/>
      <point x="256" y="494" type="line" smooth="yes"/>
      <point x="256" y="642"/>
      <point x="312" y="703"/>
      <point x="411" y="750" type="curve"/>
      <point x="508" y="704"/>
      <point x="565" y="642"/>
      <point x="565" y="494" type="curve" smooth="yes"/>
      <point x="565" y="311" type="line" smooth="yes"/>
      <point x="565" y="190"/>
      <point x="546" y="105"/>
      <point x="489" y="8" type="curve"/>
      <point x="489" y="0" type="line"/>
      <point x="657" y="0" type="line"/>
      <point x="708" y="76"/>
      <point x="735" y="169"/>
      <point x="735" y="313" type="curve" smooth="yes"/>
      <point x="735" y="497" type="line" smooth="yes"/>
      <point x="735" y="735"/>
      <point x="616" y="860"/>
      <point x="411" y="905" type="curve"/>
      <point x="208" y="861"/>
      <point x="86" y="735"/>
      <point x="86" y="497" type="curve" smooth="yes"/>
      <point x="86" y="313" type="line" smooth="yes"/>
      <point x="86" y="169"/>
      <point x="113" y="76"/>
    </contour>
    <contour>
      <point x="325" y="808" type="line"/>
      <point x="496" y="808" type="line"/>
      <point x="496" y="1167" type="line"/>
      <point x="325" y="1167" type="line"/>
    </contour>
    <contour>
      <point x="34" y="1104" type="line"/>
      <point x="786" y="1104" type="line"/>
      <point x="786" y="1238" type="line"/>
      <point x="34" y="1238" type="line"/>
    </contour>
    <contour>
      <point x="856" y="-526" type="curve"/>
      <point x="846" y="-359" type="line"/>
      <point x="777" y="-299"/>
      <point x="636" y="-213"/>
      <point x="545" y="-175" type="curve"/>
      <point x="462" y="-275" type="line"/>
      <point x="572" y="-325"/>
      <point x="779" y="-459"/>
    </contour>
    <contour>
      <point x="220" y="-292" type="line"/>
      <point x="531" y="-292" type="line"/>
      <point x="617" y="-232" type="line"/>
      <point x="644" y="-180"/>
      <point x="657" y="-105"/>
      <point x="657" y="-38" type="curve" smooth="yes"/>
      <point x="657" y="0" type="line"/>
      <point x="489" y="0" type="line"/>
      <point x="489" y="-24" type="line" smooth="yes"/>
      <point x="489" y="-94"/>
      <point x="480" y="-163"/>
      <point x="464" y="-209" type="curve"/>
      <point x="508" y="-140" type="line"/>
      <point x="231" y="-140" type="line"/>
    </contour>
    <component base="_cap.shiro_left"/>
    <component base="_cap.shiro_right" xOffset="560"/>
  </outline>
</glyph>
<glyph name="Nukta.gm.001" format="2">
  <outline>
    <contour>
      <point x="-936" y="-297" type="curve" smooth="yes"/>
      <point x="-882" y="-297"/>
      <point x="-855" y="-263"/>
      <point x="-855" y="-199" type="curve" smooth="yes"/>
      <point x="-855" y="-181" type="line" smooth="yes"/>
      <point x="-855" y="-117"/>
      <point x="-882" y="-83"/>
      <point x="-936" y="-83" type="curve" smooth="yes"/>
      <point x="-990" y="-83"/>
      <point x="-1016" y="-117"/>
      <point x="-1016" y="-181" type="curve" smooth="yes"/>
      <point x="-1016" y="-199" type="line" smooth="yes"/>
      <point x="-1016" y="-263"/>
      <point x="-990" y="-297"/>
    </contour>
  </outline>
</glyph>
<glyph name="PairinHa.gm" format="2">
  <anchor x="600" y="100" name="_bottom"/>
  <anchor x="600" y="118" name="bottom1"/>
  <outline>
    <contour>
      <point x="158" y="-605" type="curve" smooth="yes"/>
      <point x="328" y="-605"/>
      <point x="388" y="-496"/>
      <point x="388" y="-376" type="curve" smooth="yes"/>
      <point x="388" y="77" type="line"/>
      <point x="219" y="67" type="line"/>
      <point x="219" y="-375" type="line" smooth="yes"/>
      <point x="219" y="-433"/>
      <point x="198" y="-466"/>
      <point x="152" y="-466" type="curve" smooth="yes"/>
      <point x="93" y="-466"/>
      <point x="64" y="-410"/>
      <point x="64" y="-321" type="curve" smooth="yes"/>
      <point x="64" y="-307" type="line" smooth="yes"/>
      <point x="64" y="-245"/>
      <point x="93" y="-212"/>
      <point x="150" y="-212" type="curve" smooth="yes"/>
      <point x="168" y="-212" type="line"/>
      <point x="168" y="-72" type="line"/>
      <point x="130" y="-72" type="line" smooth="yes"/>
      <point x="-25" y="-72"/>
      <point x="-98" y="-151"/>
      <point x="-98" y="-299" type="curve" smooth="yes"/>
      <point x="-98" y="-318" type="line" smooth="yes"/>
      <point x="-98" y="-480"/>
      <point x="-23" y="-605"/>
    </contour>
  </outline>
</glyph>
<glyph name="PairinRa.gm" format="2">
  <anchor x="600" y="100" name="_bottom"/>
  <anchor x="600" y="387" name="bottom1"/>
  <outline>
    <contour>
      <point x="586" y="-526" type="curve"/>
      <point x="576" y="-359" type="line"/>
      <point x="507" y="-299"/>
      <point x="366" y="-213"/>
      <point x="275" y="-175" type="curve"/>
      <point x="192" y="-275" type="line"/>
      <point x="302" y="-325"/>
      <point x="509" y="-459"/>
    </contour>
    <contour>
      <point x="-50" y="-292" type="line"/>
      <point x="261" y="-292" type="line"/>
      <point x="347" y="-232" type="line"/>
      <point x="374" y="-180"/>
      <point x="388" y="-105"/>
      <point x="388" y="-38" type="curve" smooth="yes"/>
      <point x="388" y="77" type="line"/>
      <point x="219" y="67" type="line"/>
      <point x="219" y="-24" type="line" smooth="yes"/>
      <point x="219" y="-94"/>
      <point x="210" y="-163"/>
      <point x="194" y="-209" type="curve"/>
      <point x="238" y="-140" type="line"/>
      <point x="-39" y="-140" type="line"/>
    </contour>
  </outline>
</glyph>
<glyph name="PairinVa.gm" format="2">
  <anchor x="600" y="100" name="_bottom"/>
  <anchor x="600" y="87" name="bottom1"/>
  <outline>
    <contour>
      <point x="146" y="-393" type="curve"/>
      <point x="373" y="-393" type="line"/>
      <point x="373" y="-271" type="line"/>
      <point x="165" y="-271" type="line" smooth="yes"/>
      <point x="127" y="-271"/>
      <point x="94" y="-257"/>
      <point x="94" y="-222" type="curve" smooth="yes"/>
      <point x="94" y="-185"/>
      <point x="127" y="-173"/>
      <point x="168" y="-173" type="curve" smooth="yes"/>
      <point x="388" y="-173" type="line"/>
      <point x="388" y="107" type="line"/>
      <point x="219" y="77" type="line"/>
      <point x="219" y="-55" type="line"/>
      <point x="148" y="-55" type="line" smooth="yes"/>
      <point x="19" y="-55"/>
      <point x="-51" y="-110"/>
      <point x="-51" y="-218" type="curve" smooth="yes"/>
      <point x="-51" y="-328"/>
      <point x="24" y="-393"/>
    </contour>
    <contour>
      <point x="337" y="-610" type="curve" smooth="yes"/>
      <point x="360" y="-610"/>
      <point x="374" y="-608"/>
      <point x="393" y="-603" type="curve"/>
      <point x="405" y="-477" type="line"/>
      <point x="387" y="-482"/>
      <point x="377" y="-483"/>
      <point x="354" y="-483" type="curve" smooth="yes"/>
      <point x="294" y="-483"/>
      <point x="252" y="-454"/>
      <point x="238" y="-345" type="curve"/>
      <point x="77" y="-331" type="line"/>
      <point x="122" y="-545"/>
      <point x="209" y="-610"/>
    </contour>
  </outline>
</glyph>
<glyph name="Rha.gm" format="2">
  <advance width="699"/>
  <anchor x="659" y="-153" name="bottom"/>
  <anchor x="822" y="-158" name="bottom1"/>
  <anchor x="607" y="1200" name="top"/>
  <outline>
    <contour>
      <point x="38" y="1104" type="line"/>
      <point x="671" y="1104" type="line"/>
      <point x="671" y="1238" type="line"/>
      <point x="38" y="1238" type="line"/>
    </contour>
    <contour>
      <point x="178" y="-167" type="line"/>
      <point x="334" y="-167" type="line"/>
      <point x="195" y="126" type="line"/>
      <point x="67" y="108" type="line"/>
    </contour>
    <contour>
      <point x="558" y="-325" type="curve" smooth="yes"/>
      <point x="664" y="-325"/>
      <point x="721" y="-260"/>
      <point x="721" y="-178" type="curve" smooth="yes"/>
      <point x="721" y="-143"/>
      <point x="707" y="-103"/>
      <point x="688" y="-67" type="curve" smooth="yes"/>
      <point x="535" y="227" type="line"/>
      <point x="441" y="146" type="line"/>
      <point x="580" y="-107" type="line" smooth="yes"/>
      <point x="591" y="-128"/>
      <point x="605" y="-155"/>
      <point x="605" y="-178" type="curve" smooth="yes"/>
      <point x="605" y="-207"/>
      <point x="585" y="-223"/>
      <point x="552" y="-223" type="curve" smooth="yes"/>
      <point x="507" y="-223"/>
      <point x="478" y="-198"/>
      <point x="478" y="-162" type="curve" smooth="yes"/>
      <point x="478" y="-139"/>
      <point x="497" y="-122"/>
      <point x="525" y="-116" type="curve"/>
      <point x="476" y="-32" type="line"/>
      <point x="417" y="-43"/>
      <point x="367" y="-89"/>
      <point x="367" y="-162" type="curve"/>
      <point x="367" y="-260"/>
      <point x="442" y="-325"/>
    </contour>
    <contour>
      <point x="289" y="46" type="curve" smooth="yes"/>
      <point x="493" y="46"/>
      <point x="586" y="156"/>
      <point x="586" y="345" type="curve" smooth="yes"/>
      <point x="586" y="419" type="line" smooth="yes"/>
      <point x="586" y="596"/>
      <point x="513" y="679"/>
      <point x="362" y="690" type="curve"/>
      <point x="403" y="624" type="line"/>
      <point x="403" y="688" type="line"/>
      <point x="506" y="698"/>
      <point x="567" y="779"/>
      <point x="567" y="928" type="curve" smooth="yes"/>
      <point x="567" y="1140" type="line"/>
      <point x="397" y="1140" type="line"/>
      <point x="397" y="933" type="line" smooth="yes"/>
      <point x="397" y="837"/>
      <point x="373" y="764"/>
      <point x="256" y="764" type="curve" smooth="yes"/>
      <point x="100" y="764" type="line"/>
      <point x="100" y="607" type="line"/>
      <point x="269" y="607" type="line" smooth="yes"/>
      <point x="389" y="607"/>
      <point x="416" y="532"/>
      <point x="416" y="424" type="curve" smooth="yes"/>
      <point x="416" y="361" type="line" smooth="yes"/>
      <point x="416" y="246"/>
      <point x="364" y="191"/>
      <point x="260" y="191" type="curve" smooth="yes"/>
      <point x="176" y="191"/>
      <point x="107" y="225"/>
      <point x="57" y="263" type="curve"/>
      <point x="67" y="108" type="line"/>
      <point x="112" y="75"/>
      <point x="188" y="46"/>
    </contour>
    <component base="_cap.shiro_left"/>
    <component base="_cap.shiro_right" xOffset="444"/>
  </outline>
</glyph>
<glyph name="TippiDist.gm" format="2">
  <anchor x="280" y="1200" name="_top"/>
  <outline>
    <contour>
      <point x="138" y="1355" type="curve"/>
      <point x="240" y="1355" type="line"/>
      <point x="226" y="1383"/>
      <point x="217" y="1416"/>
      <point x="217" y="1446" type="curve" smooth="yes"/>
      <point x="217" y="1504"/>
      <point x="249" y="1540"/>
      <point x="301" y="1540" type="curve" smooth="yes"/>
      <point x="353" y="1540"/>
      <point x="383" y="1504"/>
      <point x="383" y="1446" type="curve" smooth="yes"/>
      <point x="383" y="1414"/>
      <point x="374" y="1381"/>
      <point x="360" y="1355" type="curve"/>
      <point x="463" y="1355" type="line"/>
      <point x="493" y="1396"/>
      <point x="511" y="1446"/>
      <point x="511" y="1499" type="curve" smooth="yes"/>
      <point x="511" y="1610"/>
      <point x="431" y="1687"/>
      <point x="301" y="1687" type="curve" smooth="yes"/>
      <point x="170" y="1687"/>
      <point x="90" y="1610"/>
      <point x="90" y="1499" type="curve" smooth="yes"/>
      <point x="90" y="1448"/>
      <point x="108" y="1397"/>
    </contour>
  </outline>
</glyph>
<glyph name="Virama.gm.alt" format="2">
  <anchor x="600" y="100" name="_bottom1"/>
  <outline>
    <contour>
      <point x="306" y="-928" type="line"/>
      <point x="440" y="-930" type="line"/>
      <point x="273" y="-686" type="line"/>
      <point x="124" y="-686" type="line"/>
    </contour>
  </outline>
</glyph>
<glyph name="_EEmatra" format="2">
  <advance width="393"/>
  <anchor x="669" y="1363" name="top1"/>
  <outline>
    <contour>
      <point x="112" y="1211" type="line"/>
      <point x="281" y="1213" type="line"/>
      <point x="281" y="1394" type="line"/>
      <point x="281" y="1593"/>
      <point x="181" y="1704"/>
      <point x="-2" y="1704" type="curve" smooth="yes"/>
      <point x="-184" y="1704"/>
      <point x="-285" y="1593"/>
      <point x="-285" y="1392" type="curve"/>
      <point x="-285" y="1321" type="line"/>
      <point x="-115" y="1321" type="line"/>
      <point x="-115" y="1394" type="line"/>
      <point x="-115" y="1508"/>
      <point x="-81" y="1564"/>
      <point x="-2" y="1564" type="curve" smooth="yes"/>
      <point x="79" y="1564"/>
      <point x="112" y="1508"/>
      <point x="112" y="1394" type="curve"/>
    </contour>
    <contour>
      <point x="112" y="0" type="line"/>
      <point x="281" y="0" type="line"/>
      <point x="281" y="1135" type="line"/>
      <point x="112" y="1135" type="line"/>
    </contour>
    <contour>
      <point x="-56" y="1104" type="line"/>
      <point x="411" y="1104" type="line"/>
      <point x="421" y="1238" type="line"/>
      <point x="-47" y="1238" type="line"/>
    </contour>
  </outline>
</glyph>
<glyph name="_Ematra" format="2">
  <advance width="393"/>
  <outline>
    <contour>
      <point x="112" y="1213" type="line"/>
      <point x="281" y="1211" type="line"/>
      <point x="281" y="1394" type="line"/>
      <point x="281" y="1508"/>
      <point x="314" y="1564"/>
      <point x="395" y="1564" type="curve" smooth="yes"/>
      <point x="474" y="1564"/>
      <point x="508" y="1508"/>
      <point x="508" y="1394" type="curve"/>
      <point x="508" y="1321" type="line"/>
      <point x="677" y="1321" type="line"/>
      <point x="677" y="1392" type="line"/>
      <point x="677" y="1593"/>
      <point x="576" y="1704"/>
      <point x="395" y="1704" type="curve" smooth="yes"/>
      <point x="212" y="1704"/>
      <point x="112" y="1593"/>
      <point x="112" y="1394" type="curve"/>
    </contour>
    <contour>
      <point x="112" y="0" type="line"/>
      <point x="281" y="0" type="line"/>
      <point x="281" y="1136" type="line"/>
      <point x="112" y="1138" type="line"/>
    </contour>
    <contour>
      <point x="-25" y="1104" type="line"/>
      <point x="412" y="1104" type="line"/>
      <point x="423" y="1238" type="line"/>
      <point x="-15" y="1238" type="line"/>
    </contour>
  </outline>
</glyph>
<glyph name="_cap.shiro_right" format="2">
  <advance width="263"/>
  <outline>
    <contour>
      <point x="166" y="1104" type="line"/>
      <point x="278" y="1104" type="line"/>
      <point x="288" y="1238" type="line"/>
      <point x="166" y="1238" type="line"/>
    </contour>
  </outline>
</glyph>
<glyph name="_danda" format="2">
  <advance width="466"/>
  <outline>
    <contour>
      <point x="185" y="0" type="line"/>
      <point x="354" y="0" type="line"/>
      <point x="354" y="1104" type="line"/>
      <point x="431" y="1104" type="line"/>
      <point x="431" y="1238" type="line"/>
      <point x="185" y="1238" type="line"/>
    </contour>
    <component base="_cap.shiro_right" xOffset="203"/>
  </outline>
</glyph>
<glyph name="_danda001" format="2">
  <advance width="393"/>
  <outline>
    <contour>
      <point x="112" y="460" type="line"/>
      <point x="281" y="460" type="line"/>
      <point x="281" y="1193" type="line"/>
      <point x="112" y="1193" type="line"/>
    </contour>
    <contour>
      <point x="-25" y="1104" type="line"/>
      <point x="408" y="1104" type="line"/>
      <point x="418" y="1238" type="line"/>
      <point x="-15" y="1238" type="line"/>
    </contour>
  </outline>
</glyph>
<glyph name="_part.shiro" format="2">
  <advance width="748"/>
  <outline>
    <contour>
      <point x="-24" y="1104" type="line"/>
      <point x="761" y="1104" type="line"/>
      <point x="771" y="1238" type="line"/>
      <point x="-14" y="1238" type="line"/>
    </contour>
  </outline>
</glyph>
